<?xml version="1.0" encoding="UTF-8" standalone="no"?>
<!-- Created with Inkscape (http://www.inkscape.org/) -->

<svg
   xmlns:dc="http://purl.org/dc/elements/1.1/"
   xmlns:cc="http://creativecommons.org/ns#"
   xmlns:rdf="http://www.w3.org/1999/02/22-rdf-syntax-ns#"
   xmlns:svg="http://www.w3.org/2000/svg"
   xmlns="http://www.w3.org/2000/svg"
   xmlns:sodipodi="http://sodipodi.sourceforge.net/DTD/sodipodi-0.dtd"
   xmlns:inkscape="http://www.inkscape.org/namespaces/inkscape"
   id="svg2"
   version="1.1"
   inkscape:version="0.48.4 r9939"
   width="646"
   height="498"
   sodipodi:docname="quotebub3.svg">
  <metadata
     id="metadata8">
    <rdf:RDF>
      <cc:Work
         rdf:about="">
        <dc:format>image/svg+xml</dc:format>
        <dc:type
           rdf:resource="http://purl.org/dc/dcmitype/StillImage" />
        <dc:title></dc:title>
      </cc:Work>
    </rdf:RDF>
  </metadata>
  <defs
     id="defs6" />
  <sodipodi:namedview
     pagecolor="#ffffff"
     bordercolor="#666666"
     borderopacity="1"
     objecttolerance="10"
     gridtolerance="10"
     guidetolerance="10"
     inkscape:pageopacity="0"
     inkscape:pageshadow="2"
     inkscape:window-width="640"
     inkscape:window-height="480"
     id="namedview4"
     showgrid="false"
     inkscape:zoom="0.47389558"
     inkscape:cx="323"
     inkscape:cy="249"
     inkscape:window-x="0"
     inkscape:window-y="0"
     inkscape:window-maximized="0"
     inkscape:current-layer="svg2" />
  <g
     id="g3005"
     transform="matrix(-1,0,0,-1,670.98706,513.50668)">
    <path
       style="fill:#d0d0d0"
       d="m 617.60169,499.88357 c -11.03027,-2.68129 -15.92632,-3.45125 -27.01778,-4.24887 -6.3109,-0.45384 -12.29181,-1.43809 -14,-2.30391 -2.97462,-1.50774 -7.17773,-2.83781 -27.98222,-8.85499 -6.05,-1.74981 -12.125,-3.73806 -13.5,-4.41833 -1.375,-0.68027 -4.525,-2.19521 -7,-3.36655 -2.475,-1.17133 -5.175,-2.53753 -6,-3.03599 -0.825,-0.49845 -4.2,-1.67826 -7.5,-2.62179 -3.3,-0.94352 -7.92454,-2.56303 -10.27675,-3.59889 -2.35221,-1.03587 -5.18329,-1.8834 -6.29128,-1.8834 -1.10799,0 -5.68682,-1.8 -10.17518,-4 -4.48836,-2.2 -9.60221,-4 -11.36411,-4 -2.19647,0 -4.5203,-1.1002 -7.39268,-3.5 -2.30407,-1.925 -4.83577,-3.5 -5.626,-3.5 -0.79022,0 -1.68045,-0.63502 -1.97828,-1.41115 -0.29783,-0.77613 -2.59549,-2.01363 -5.10593,-2.75 -2.51043,-0.73637 -5.20387,-2.31241 -5.98542,-3.50232 -1.20324,-1.83193 -1.89319,-2.02805 -4.50234,-1.27975 -1.69474,0.48604 -6.731,0.81014 -11.19169,0.72021 -4.63775,-0.0935 -9.0292,0.33864 -10.25636,1.00929 -2.73081,1.49238 -9.19636,2.31261 -22.01642,2.79304 -7.28898,0.27315 -11.67165,0.97925 -15.5,2.49721 -2.98969,1.18543 -8.4167,2.28328 -12.33756,2.4958 -16.6586,0.90297 -25.52844,2.78392 -43.5,9.22472 -9.02722,3.23525 -20.72203,6.20295 -24.44397,6.20295 -1.91737,0 -5.54708,0.69971 -8.066,1.55491 -2.51893,0.85519 -7.14715,1.51707 -10.28495,1.47084 -8.51883,-0.12551 -36.49388,0.82958 -46.34465,1.58226 -8.84967,0.67618 -21.05723,-0.83549 -23.69751,-2.93448 -0.7354,-0.58463 -3.6604,-1.18786 -6.5,-1.34051 -6.4094,-0.34456 -13.22462,-2.13726 -17.16292,-4.5146 -1.65,-0.99602 -3.72346,-1.81263 -4.60768,-1.81468 -0.88422,-0.002 -6.05922,-2.18015 -11.5,-4.8402 -5.44078,-2.66005 -12.00205,-5.79071 -14.58061,-6.95702 -2.57855,-1.16631 -5.70068,-3.4899 -6.93805,-5.16354 -1.23738,-1.67364 -2.83459,-3.04298 -3.54937,-3.04298 -0.71478,0 -4.93798,-3.4875 -9.38489,-7.75 -4.44692,-4.2625 -9.09119,-8.28166 -10.32061,-8.93148 -1.22943,-0.64981 -2.76195,-2.33731 -3.40561,-3.75 -0.64367,-1.41268 -1.589,-2.56852 -2.10075,-2.56852 -0.51175,0 -3.54772,-2.475 -6.74661,-5.5 -3.19889,-3.025 -6.14567,-5.5 -6.5484,-5.5 -0.93021,0 -11.81742,-13.59773 -11.81742,-14.75953 0,-0.47646 -1.33959,-2.1497 -2.97688,-3.71832 -1.637287,-1.56862 -3.469797,-4.34558 -4.072244,-6.17101 -0.602447,-1.82543 -2.881535,-4.84787 -5.06464,-6.71653 -3.302239,-2.82659 -4.106791,-4.26743 -4.787537,-8.5738 -0.594783,-3.76258 -1.675876,-6.0611 -3.958475,-8.41614 -1.727121,-1.78194 -3.14022,-3.96074 -3.14022,-4.84179 0,-0.88105 -1.630068,-4.00962 -3.622373,-6.95239 -1.992305,-2.94277 -4.081027,-6.70049 -4.641604,-8.35049 -0.560577,-1.65 -1.691475,-3.7778 -2.513108,-4.72845 -0.821632,-0.95064 -1.665924,-3.28968 -1.876203,-5.19786 -0.39547,-3.58869 -4.570869,-13.21405 -7.611383,-17.5462 -0.954431,-1.35987 -1.738101,-3.38487 -1.74149,-4.5 -0.0034,-1.11512 -0.607139,-3.1791 -1.341669,-4.58661 -0.73453,-1.40752 -1.619505,-4.33514 -1.96661,-6.50582 -0.347105,-2.17067 -1.543354,-5.83483 -2.65833,-8.14257 -1.114977,-2.30773 -2.02723,-4.69597 -2.02723,-5.30719 0,-0.61123 -1.38884,-3.99099 -3.08631,-7.51059 -4.69252,-9.72964 -9.370613,-31.77826 -8.375888,-39.47694 0.319946,-2.47623 0.08735,-6.70822 -0.516882,-9.40442 -0.774652,-3.45665 -0.793133,-6.40474 -0.06267,-9.99777 0.569761,-2.80257 1.266191,-8.47058 1.547623,-12.59558 0.956077,-14.01342 5.943899,-35.51555 10.473334,-45.14976 3.702636,-7.87559 4.184978,-8.63429 11.270797,-17.72845 3.1625,-4.05885 5.75,-8.07961 5.75,-8.93503 0,-3.9419 5.130087,-11.18664 16.334598,-23.06783 6.690967,-7.09506 14.640398,-14.835175 17.665394,-17.200263 3.025,-2.365088 6.09478,-5.123973 6.82172,-6.130854 2.17107,-3.007109 11.23278,-9.230474 18.22513,-12.516585 3.60077,-1.692208 7.14069,-3.792272 7.86649,-4.666809 0.7258,-0.874537 3.17972,-2.078095 5.45315,-2.674573 2.27343,-0.596478 5.79462,-2.399707 7.82487,-4.007177 2.03025,-1.60747 4.00012,-2.922672 4.3775,-2.922672 0.37737,0 5.11447,-2.25 10.52689,-5 5.41241,-2.75 10.54287,-5 11.40102,-5 0.85814,0 4.13493,-1.278788 7.28175,-2.84175 5.3845,-2.674377 20.87877,-7.627199 31.46463,-10.057829 2.60873,-0.598993 7.08045,-2.21663 9.93715,-3.59475 2.8567,-1.378119 6.48213,-2.505671 8.05651,-2.505671 1.57438,0 4.25765,-0.721453 5.96281,-1.603228 1.70517,-0.881775 4.72032,-1.605824 6.70034,-1.608996 1.98002,-0.0032 7.42504,-0.631132 12.10004,-1.395464 10.69293,-1.748225 60.69855,-3.8559 62.31936,-2.626684 0.66924,0.507548 7.02824,0.587021 14.68064,0.183475 13.02196,-0.686708 24.58601,0.103504 32,2.186672 1.925,0.540882 4.625,0.991552 6,1.001489 6.64723,0.04804 26.93727,2.138519 30.33576,3.125494 2.11912,0.615428 7.48953,4.159164 12,7.918365 4.49033,3.74242 9.96424,7.664837 12.16424,8.716482 2.2,1.051645 5.32169,3.304902 6.93709,5.007238 1.6154,1.702337 3.45211,3.095157 4.08159,3.095157 1.61206,0 6.56076,8.152383 10.31941,17 3.29527,7.756855 5.74178,17.111151 7.19232,27.5 0.99324,7.113693 1.70481,9.954433 3.51742,14.042423 2.13693,4.81944 4.29085,17.01333 5.11506,28.95758 0.96944,14.04893 0.95481,18.96964 -0.10554,35.5 -0.99034,15.43882 -0.86462,21.63133 0.63949,31.5 0.58678,3.85 0.98978,9.71502 0.89554,13.03338 -0.10122,3.56427 0.46267,7.5508 1.3779,9.74125 1.08233,2.59038 1.36568,5.29277 0.94017,8.96662 -0.69929,6.03766 1.97663,27.24386 4.04593,32.06324 2.05259,4.78047 5.54362,16.47909 5.54362,18.57696 0,1.0117 1.03505,3.36475 2.30011,5.229 1.26507,1.86425 2.90709,5.63955 3.64895,8.38955 0.74187,2.75 3.02767,8.6 5.07956,13 2.0519,4.4 4.06891,9.125 4.48225,10.5 0.41333,1.375 1.49882,3.625 2.41218,5 0.91336,1.375 2.99182,5.10044 4.6188,8.27875 1.62698,3.17831 3.58834,7.00331 4.35857,8.5 0.77024,1.49669 2.68274,4.19941 4.25,6.00605 1.56727,1.80663 2.84958,3.67834 2.84958,4.15934 0,1.25336 11.27282,14.5731 14.95773,17.67374 1.70752,1.43679 4.39336,4.47304 5.96854,6.74723 4.00943,5.78869 19.07785,21.63489 20.57299,21.63489 0.6805,0 4.33406,3.07162 8.11901,6.82581 4.57285,4.5357 7.95897,7.04099 10.09249,7.46716 1.76592,0.35273 4.91592,2.11862 7,3.92418 4.81525,4.17175 5.30189,4.45917 20.28924,11.98332 6.875,3.45148 13.05741,6.14979 13.73869,5.99624 1.57027,-0.35392 4.7852,1.32805 9.30334,4.8673 3.15306,2.46992 12.93446,6.42147 16.95797,6.85078 0.825,0.088 3.975,0.41861 7,0.73463 9.33698,0.97541 12.98015,5.44848 12.99442,15.95456 0.004,3.02634 0.68681,4.83903 2.59992,6.90331 3.10522,3.35059 2.77154,6.91424 -1.18152,12.61851 -3.14412,4.53697 -15.98451,10.44256 -24.57774,11.30387 -3.1157,0.31229 -6.2657,0.7464 -7,0.96468 -0.73429,0.21828 -4.03508,-0.25946 -7.33508,-1.06163 z m -25.75,-27.96301 c 2.47563,-0.66344 3.07966,-2.36971 0.83889,-2.36971 -0.7761,0 -2.48477,-1.2375 -3.79703,-2.75 -3.18863,-3.6752 -8.31582,-7.25 -10.39838,-7.25 -2.18749,0 -9.06879,-5.60165 -18.08714,-14.72365 -3.95652,-4.00199 -7.70578,-7.27635 -8.33171,-7.27635 -1.72879,0 -9.81812,-6.93153 -10.46392,-8.96625 -0.33372,-1.05148 -2.35421,-2.28997 -4.89759,-3.00208 -3.1795,-0.8902 -6.42571,-3.23696 -12.22131,-8.83505 -4.3405,-4.19258 -8.75367,-8.08947 -9.80705,-8.65975 -1.05337,-0.57028 -2.40337,-2.68195 -3,-4.69259 -0.96447,-3.25034 -5.35582,-8.95925 -13.83476,-17.98567 -1.5125,-1.61016 -2.75,-3.28601 -2.75,-3.72411 0,-0.4381 -1.07373,-1.37118 -2.38606,-2.07352 -2.42949,-1.30023 -11.27127,-12.52135 -13.44334,-17.06098 -0.6579,-1.375 -2.54042,-4.96609 -4.18339,-7.98021 -1.64296,-3.01411 -2.98721,-6.19242 -2.98721,-7.0629 0,-0.87049 -1.35,-2.87609 -3,-4.45689 -1.65,-1.5808 -3,-3.70495 -3,-4.72033 0,-2.3863 -4.5903,-11.46952 -7.63418,-15.1064 -1.3012,-1.55469 -2.36582,-3.75492 -2.36582,-4.8894 0,-1.13447 -1.27103,-4.13744 -2.8245,-6.67327 -2.81851,-4.60083 -5.07661,-11.19982 -5.58138,-16.31086 -0.14667,-1.48515 -0.83424,-3.38414 -1.52793,-4.21999 -0.6937,-0.83585 -1.40313,-2.77073 -1.57652,-4.29974 -0.39839,-3.51311 -2.37808,-11.15816 -3.56834,-13.78001 -0.49937,-1.1 -1.1249,-5.03846 -1.39006,-8.75213 -0.26516,-3.71367 -1.1725,-8.08719 -2.0163,-9.71893 -1.18334,-2.28831 -1.64414,-7.78736 -2.01495,-24.04561 -0.26441,-11.59334 -0.94115,-21.93907 -1.50386,-22.99051 -0.62344,-1.16491 -0.81169,-6.37894 -0.4819,-13.34738 0.30196,-6.38012 0.0889,-13.45403 -0.48193,-16.00119 -0.70417,-3.14211 -0.69312,-6.93833 0.0354,-12.17632 0.76092,-5.47081 0.7508,-7.98165 -0.036,-8.92967 -0.79554,-0.95857 -0.72325,-4.41065 0.26461,-12.63618 0.90396,-7.52697 1.05498,-12.67116 0.45091,-15.35969 -0.90299,-4.01899 -1.30092,-6.39379 -2.353,-14.04239 -0.30261,-2.2 -1.17998,-5.39664 -1.9497,-7.10364 -0.76972,-1.707 -2.04021,-5.85014 -2.82331,-9.206986 -1.59643,-6.843362 -3.369,-9.676282 -10.12976,-16.189377 -2.56912,-2.475 -5.93697,-6.3 -7.48413,-8.5 -2.30509,-3.277753 -3.91866,-4.338756 -8.93641,-5.876126 -3.93045,-1.204237 -6.91979,-2.849924 -8.34717,-4.59528 -2.47859,-3.030745 -9.25237,-6.028594 -13.62188,-6.028594 -3.43158,0 -9.29354,-2.321077 -10.97315,-4.344877 -1.90866,-2.299801 -11.8703,-6.655123 -15.22182,-6.655123 -1.67112,0 -4.02132,-0.55091 -5.22266,-1.224245 -1.81465,-1.017083 -9.44876,-1.531431 -26.68426,-1.797852 -0.825,-0.01275 -3.15542,0.25749 -5.1787,0.600538 -2.02329,0.343048 -5.17329,0.134211 -7,-0.464082 -4.58974,-1.503251 -35.78494,-2.314583 -44.3213,-1.152719 -13.68072,1.862051 -18.07342,2.830599 -24,5.291761 -3.3,1.37041 -7.8,2.807138 -10,3.192729 -7.68559,1.347043 -21.04722,5.603758 -26.89092,8.566841 -3.24001,1.642866 -6.42492,2.987029 -7.07759,2.987029 -2.01163,0 -13.71496,5.040617 -15.23684,6.56249 -0.79063,0.790631 -1.89213,1.43751 -2.44778,1.43751 -0.55565,0 -2.90071,1.549072 -5.21125,3.442381 -2.31053,1.89331 -6.41425,4.391105 -9.11937,5.550655 -2.70512,1.15955 -7.07896,3.660478 -9.71964,5.557618 -2.64068,1.897141 -5.1092,3.449346 -5.48559,3.449346 -2.3365,0 -21.41735,9.848709 -24.31102,12.548293 -1.925,1.79589 -6.65,4.86428 -10.5,6.81865 -6.30927,3.20277 -12.5,8.88636 -12.5,11.47604 0,0.52241 -1.605387,2.35939 -3.567531,4.08217 -2.4664,2.16553 -3.74914,4.28092 -4.155909,6.8536 -0.323605,2.04669 -1.643214,5.28821 -2.932465,7.20338 -1.28925,1.91518 -2.344091,3.98293 -2.344091,4.59502 0,0.61208 -0.868769,1.8991 -1.930597,2.86004 -1.061829,0.96094 -2.871501,4.96819 -4.021494,8.90499 -1.149993,3.9368 -2.531224,7.93921 -3.069402,8.89425 -0.538179,0.95504 -0.980189,2.98004 -0.982245,4.5 -0.0021,1.51996 -0.842698,4.13934 -1.868094,5.82084 -1.025395,1.68149 -2.126042,4.60649 -2.445882,6.5 -3.89057,23.03279 -4.655685,29.73243 -5.172323,45.29085 -0.344878,10.3859 -0.123122,14.51112 0.886973,16.5 0.74075,1.45853 1.560844,6.12308 1.82243,10.36565 0.261586,4.24258 0.937706,8.29258 1.502488,9 1.22604,1.53569 2.244085,6.28571 2.954728,13.78623 0.286606,3.025 0.965845,6.04337 1.50942,6.70748 0.543574,0.66412 1.069638,2.91412 1.16903,5 0.103964,2.18185 1.348011,5.60009 2.92925,8.04864 1.525231,2.36183 2.86391,5.97904 3.007756,8.12719 0.14257,2.12908 0.767251,4.48883 1.388182,5.24387 2.017864,2.45372 7.31978,12.64458 7.31978,14.06942 0,0.76284 2.062135,3.39318 4.582522,5.84519 2.520384,2.45202 5.427064,6.09187 6.459284,8.08856 1.03222,1.9967 3.47008,5.13322 5.41748,6.97005 1.94739,1.83683 3.54071,3.94908 3.54071,4.69388 0,0.74481 2.45056,3.92335 5.44569,7.06343 2.99512,3.14007 6.49709,7.97859 7.78215,10.75226 2.69549,5.81795 12.98204,17.91102 17.02216,20.01159 1.5125,0.78639 2.75561,2.20574 2.76247,3.15412 0.0193,2.66605 12.02663,14.22432 14.777,14.22432 0.53523,0 2.17446,1.575 3.64273,3.5 1.46827,1.925 3.36922,3.5 4.22434,3.5 0.85511,0 2.89173,1.125 4.52583,2.5 1.63409,1.375 3.52736,2.5 4.20726,2.5 0.67991,0 2.55788,1.40542 4.17328,3.12316 1.6154,1.71774 4.28709,3.77085 5.93709,4.56247 1.65,0.79162 5.45509,2.9862 8.45576,4.87684 3.00067,1.89064 6.44759,3.43753 7.65983,3.43753 1.21223,0 6.40714,1.38064 11.54423,3.0681 7.60399,2.49779 11.46258,3.14576 20.75808,3.4859 6.27985,0.22979 12.26394,0.68633 13.29799,1.01452 1.03405,0.32819 2.42099,0.16821 3.0821,-0.35551 1.90774,-1.51131 8.56401,-2.41897 16.89553,-2.30392 5.8151,0.0803 8.98914,-0.42847 13,-2.08381 2.91856,-1.20453 8.45648,-2.5251 12.30648,-2.9346 15.40814,-1.63886 18.1371,-2.01335 21.5,-2.9504 1.925,-0.53639 6.425,-1.16613 10,-1.39941 13.27455,-0.86624 18.7094,-1.77855 27,-4.53227 17.71764,-5.88491 22.24283,-7.06152 30.29884,-7.87807 4.5597,-0.46217 9.25708,-1.35768 10.43862,-1.99002 1.62715,-0.87083 2.78051,-0.86163 4.75479,0.0379 2.03132,0.92553 3.37287,0.91053 6.07893,-0.068 3.63861,-1.31574 32.18337,-2.62458 50.20007,-2.30178 9.21053,0.16502 10.88115,0.4919 16.17715,3.16531 3.24825,1.63971 6.19024,3.44136 6.53777,4.00367 0.34753,0.56231 1.58503,1.02238 2.75002,1.02238 1.16499,0 3.27593,1.30778 4.69098,2.90617 2.62445,2.96447 14.4606,9.43015 19.18976,10.4827 1.43932,0.32034 4.81432,2.0882 7.5,3.92857 2.68569,1.84038 7.04955,4.16904 9.69747,5.1748 2.64792,1.00577 6.42229,3.10646 8.3875,4.66821 3.97649,3.16012 3.99128,3.16433 10.2981,2.93156 2.90636,-0.10726 5.42803,0.46679 7.12051,1.62096 19.0374,12.9824 24.43597,16.20352 28.19588,16.82341 2.30099,0.37936 4.75111,1.14812 5.44473,1.70836 1.47121,1.1883 7.5075,4.62023 8.23888,4.68421 0.275,0.0241 1.5125,-0.2276 2.75,-0.55924 z m -282.75,-24.36971 c 1.15087,-0.74375 0.80174,-0.96937 -1.5,-0.96937 -1.65,0 -3.675,0.43621 -4.5,0.96937 -1.15087,0.74375 -0.80174,0.96937 1.5,0.96937 1.65,0 3.675,-0.43621 4.5,-0.96937 z"
       id="path3019"
       inkscape:connector-curvature="0" />
    <path
       style="fill:#afafaf"
       d="m 618.60169,498.84499 c -10.30815,-2.39288 -16.64611,-3.36127 -27.54199,-4.20821 -5.79809,-0.45069 -11.87309,-1.49532 -13.5,-2.3214 -1.6269,-0.82608 -6.55801,-2.52057 -10.95801,-3.76552 -14.61629,-4.1356 -29.7586,-8.96934 -30.88667,-9.85967 -0.61233,-0.48328 -2.91333,-1.44423 -5.11333,-2.13544 -2.2,-0.69122 -4.74433,-1.90554 -5.65407,-2.6985 -0.90975,-0.79297 -5.44569,-2.48493 -10.07988,-3.75992 -4.6342,-1.275 -9.83002,-3.04432 -11.54627,-3.93183 -1.71625,-0.88751 -3.95828,-1.61365 -4.98229,-1.61365 -1.90651,0 -7.85801,-2.47906 -14.43561,-6.01308 -2.03396,-1.0928 -5.2808,-1.98692 -7.2152,-1.98692 -2.40599,0 -4.5548,-0.88604 -6.80188,-2.80468 -5.50658,-4.70172 -13.00358,-9.19532 -15.34123,-9.19532 -1.24205,0 -2.91398,-1.06899 -3.80946,-2.43567 -1.36961,-2.09028 -2.01974,-2.31412 -4.58464,-1.57852 -1.6438,0.47144 -7.00849,0.80095 -11.92154,0.73226 -5.31863,-0.0744 -9.47986,0.32911 -10.28489,0.99723 -1.81944,1.51 -15.80232,3.32447 -23.84304,3.09395 -4.63623,-0.13291 -8.36377,0.47781 -13,2.12992 -3.575,1.27395 -9.2,2.42349 -12.5,2.55454 -14.99116,0.59533 -24.39355,2.53033 -39.5,8.12906 -9.0904,3.36907 -21.29876,6.47778 -29.18992,7.43286 -3.67946,0.44534 -7.6398,1.31805 -8.80075,1.93938 -1.16095,0.62132 -4.90049,1.08135 -8.31008,1.02229 -9.40629,-0.16294 -37.21352,0.78924 -45.91912,1.57237 -7.89909,0.71057 -22.17813,-0.8963 -24.45473,-2.75198 -0.64603,-0.52658 -3.96412,-1.17844 -7.37353,-1.44857 -3.40941,-0.27013 -8.50584,-1.41417 -11.3254,-2.5423 -2.81956,-1.12813 -6.92647,-2.70492 -9.12647,-3.50398 -8.9375,-3.24616 -30.26869,-14.49442 -33.03936,-17.42216 -1.62835,-1.72066 -3.74464,-3.42786 -4.70286,-3.79378 -1.77512,-0.67785 -10.68295,-8.6921 -27.09856,-24.38018 -5.03757,-4.81431 -9.85172,-8.97698 -10.69811,-9.25039 -0.84638,-0.2734 -3.77138,-3.68818 -6.5,-7.5884 -2.72861,-3.90021 -6.42361,-8.89262 -8.21111,-11.09423 -1.787496,-2.20161 -3.249996,-4.58195 -3.249996,-5.28965 0,-0.7077 -2.036482,-3.26621 -4.525516,-5.68559 -3.787123,-3.68113 -4.661364,-5.25823 -5.358114,-9.66584 -0.560791,-3.54755 -1.695059,-6.1672 -3.474484,-8.02452 -1.453037,-1.51665 -2.641886,-3.2602 -2.641886,-3.87456 0,-0.61436 -2.025,-4.13683 -4.5,-7.8277 -2.475,-3.69087 -4.5,-7.16047 -4.5,-7.71022 0,-0.54976 -0.845242,-2.40267 -1.878315,-4.11759 -1.033074,-1.71491 -2.188668,-4.85992 -2.567988,-6.9889 -0.37932,-2.12897 -2.372141,-7.08404 -4.428492,-11.01126 -3.982511,-7.60579 -7.125205,-16.20517 -7.125205,-19.49675 0,-1.1017 -0.45,-2.2812 -1,-2.62112 -0.55,-0.33992 -1,-1.62648 -1,-2.85902 0,-1.23254 -0.394686,-2.66848 -0.877079,-3.19098 -0.482394,-0.5225 -1.668902,-3.425 -2.636685,-6.45 -0.967783,-3.025 -2.810059,-7.31729 -4.093947,-9.53842 -3.784608,-6.54738 -8.799674,-30.42547 -7.868447,-37.46381 0.327624,-2.47623 0.101309,-6.70822 -0.502922,-9.40442 -0.781221,-3.48596 -0.794365,-6.37427 -0.0455,-9.99777 0.579208,-2.80257 1.469468,-9.14558 1.978358,-14.09558 3.094196,-30.09747 9.482607,-47.79107 22.579738,-62.53774 2.456566,-2.76596 4.466484,-5.87703 4.466484,-6.91348 0,-4.02526 5.228891,-11.94474 13.300656,-20.14468 4.637005,-4.71064 9.216905,-9.76437 10.177555,-11.2305 0.96065,-1.466142 5.001575,-5.115446 8.979833,-8.10957 3.978262,-2.994124 7.959792,-6.552794 8.847862,-7.908157 1.75485,-2.678234 15.46498,-11.655876 17.80018,-11.655876 0.79102,0 3.00325,-1.282768 4.91607,-2.850596 1.91281,-1.567827 5.27784,-3.414872 7.47784,-4.104543 2.2,-0.689672 5.8,-2.414387 8,-3.832701 5.78765,-3.731231 24.58048,-13.21216 26.18877,-13.21216 0.75254,0 3.94293,-1.28614 7.08975,-2.858088 5.25574,-2.625435 19.63558,-7.195077 31.60557,-10.043662 2.68625,-0.639266 7.31209,-2.27289 10.27964,-3.630276 2.96755,-1.357386 6.3947,-2.468201 7.61591,-2.468478 1.2212,-2.78e-4 4.56677,-0.892329 7.4346,-1.982337 2.86783,-1.090008 5.84378,-1.740258 6.61321,-1.444999 0.76943,0.295258 5.44366,-0.164933 10.38718,-1.022647 11.04838,-1.916927 59.49222,-4.036284 62.01521,-2.713088 1.63896,0.859563 13.63008,0.72827 24.28901,-0.265946 2.48537,-0.231823 8.33537,0.186005 13,0.928507 14.22517,2.26432 15.04768,2.364562 28.98115,3.53205 16.43079,1.376739 20.82736,2.837582 28.26158,9.390445 3.16887,2.793185 8.56887,6.772377 12,8.842647 8.34744,5.036665 17.30843,13.871162 18.79422,18.528924 0.65037,2.038822 2.21091,5.795885 3.46787,8.349031 2.07305,4.210776 5.08685,15.705194 6.12438,23.357917 0.75397,5.561213 2.68211,13.992573 3.4303,15.000003 0.40847,0.55 1.05466,2.8 1.43597,5 0.38132,2.2 1.29087,5.83775 2.02123,8.08388 1.21584,3.73918 3.24472,30.53668 2.75712,36.41612 -1.55124,18.70458 -1.63758,37.65946 -0.21638,47.5 0.63547,4.4 1.08219,10.475 0.99271,13.5 -0.0895,3.025 0.51251,7.40987 1.33774,9.74415 0.94525,2.67379 1.29965,6.00385 0.95782,9 -0.69318,6.07571 2.10465,27.32874 4.10754,31.20189 0.84034,1.62505 1.5279,3.82203 1.5279,4.88218 0,1.06014 0.6639,3.51648 1.47534,5.45852 0.81144,1.94204 1.96193,5.70223 2.55664,8.35597 0.59472,2.65374 1.73285,5.54494 2.52919,6.42488 0.79634,0.87994 2.14372,4.03721 2.99419,7.01615 0.85047,2.97894 2.16394,6.76626 2.91883,8.41626 0.75488,1.65 2.79552,6.15 4.53475,10 5.80556,12.85133 15.27508,30.80184 17.93619,34 0.91529,1.1 2.87755,3.90359 4.3606,6.2302 1.48305,2.32662 6.20513,7.72662 10.49352,12 4.28839,4.27339 8.64049,9.1198 9.67134,10.7698 3.206,5.1316 14.57479,17.26368 18.90252,20.17162 2.26979,1.52515 6.7472,5.36444 9.94981,8.53178 3.83981,3.79752 7.15232,6.11675 9.72636,6.80987 2.14689,0.5781 5.88724,2.76806 8.31189,4.86658 4.85709,4.20378 32.21919,18.49753 33.68047,17.59442 1.13561,-0.70185 4.37204,0.98001 8.96138,4.65693 4.62202,3.7031 13.69796,6.74218 22.43367,7.51191 4.27566,0.37675 7.80845,1.26065 8.95133,2.23963 2.79204,2.39165 4.61198,7.43493 4.61198,12.78042 0,3.71492 0.55067,5.30217 2.57113,7.41109 2.35007,2.45293 2.48041,3.02062 1.51595,6.60235 -0.58035,2.15526 -2.33364,5.1435 -3.89621,6.64053 -3.62784,3.4757 -15.63295,8.6206 -20.19747,8.65582 -1.92863,0.0149 -4.85363,0.40661 -6.5,0.87052 -1.928,0.54327 -5.12889,0.34776 -8.9934,-0.54933 z m -25.75,-25.92443 c 2.55598,-0.68497 3.14088,-4.36971 0.69363,-4.36971 -0.856,0 -2.7685,-1.27498 -4.25,-2.8333 -3.44272,-3.62122 -8.59556,-7.1667 -10.41577,-7.1667 -2.06141,0 -16.58482,-11.81643 -17.30245,-14.07749 -0.3356,-1.05738 -1.20311,-1.92251 -1.92779,-1.92251 -0.72468,0 -2.05319,-1.12265 -2.95225,-2.49478 -0.89905,-1.37214 -3.10834,-3.11054 -4.90953,-3.86313 -1.80119,-0.75258 -5.05486,-3.38537 -7.23037,-5.85064 -2.4627,-2.79071 -5.46505,-4.96529 -7.95547,-5.76208 -4.58535,-1.46706 -21.0276,-16.59149 -23.48942,-21.60678 -2.13005,-4.33941 -11.99381,-16.36792 -19.58743,-23.8862 -5.07586,-5.02548 -10.64508,-12.08953 -12.64292,-16.03639 -0.8352,-1.65 -2.92743,-5.579 -4.64939,-8.7311 -1.72196,-3.15211 -3.13084,-6.4361 -3.13084,-7.29775 0,-0.86166 -1.10262,-2.58852 -2.45027,-3.83748 -1.34765,-1.24896 -3.19558,-4.48998 -4.10651,-7.20226 -0.91092,-2.71227 -3.4083,-7.51382 -5.54972,-10.6701 -2.14143,-3.15628 -3.8935,-6.35557 -3.8935,-7.10954 0,-0.75396 -1.3577,-4.02155 -3.01711,-7.26131 -1.6594,-3.23975 -3.65826,-8.99181 -4.44189,-12.78235 -0.78363,-3.79055 -1.90094,-7.36805 -2.48289,-7.95 -0.58196,-0.58196 -1.05811,-2.07194 -1.05811,-3.31106 0,-1.23912 -0.41381,-3.28662 -0.91957,-4.55 -2.30124,-5.74837 -3.96505,-12.85464 -4.5014,-19.22583 -0.32081,-3.81082 -1.22345,-7.90579 -2.00588,-9.09992 -1.00683,-1.53662 -1.43134,-5.38641 -1.45255,-13.17286 -0.0407,-14.94978 -0.98515,-28.83195 -2.34764,-34.50836 -0.85767,-3.57318 -0.84295,-5.34105 0.061,-7.32493 0.65531,-1.43826 0.86662,-3.14065 0.46958,-3.78308 -0.39705,-0.64244 -0.61416,-4.09622 -0.48248,-7.67507 0.13169,-3.57885 -0.20759,-8.0212 -0.75394,-9.87188 -0.66557,-2.2545 -0.64736,-5.93592 0.0552,-11.15616 0.71062,-5.28033 0.72185,-8.40173 0.0348,-9.68542 -0.69737,-1.30304 -0.61056,-5.18768 0.27817,-12.44813 0.85648,-6.99702 0.99057,-12.20399 0.39786,-15.44971 -0.94329,-5.16545 -1.40699,-8.07779 -2.44791,-15.37449 -0.35141,-2.46333 -1.19069,-5.38833 -1.86506,-6.5 -0.67439,-1.11167 -1.83792,-4.72121 -2.58564,-8.021213 -1.63091,-7.197857 -4.79083,-12.073263 -12.80034,-19.749537 -3.29952,-3.162245 -6.27602,-6.621942 -6.61444,-7.688216 -0.35105,-1.106062 -2.20533,-2.431731 -4.31754,-3.086708 -6.13405,-1.902119 -10.38399,-4.085328 -12.60146,-6.473407 -2.36267,-2.544464 -9.39057,-5.502132 -13.07394,-5.502132 -3.12567,0 -7.12063,-1.7631 -11.52682,-5.087138 -3.98267,-3.004532 -10.96761,-5.90586 -14.27024,-5.927415 -1.22637,-0.008 -4.07647,-0.658125 -6.33357,-1.444711 -2.34917,-0.818674 -8.12128,-1.460797 -13.5,-1.501817 -5.1679,-0.03941 -10.52119,-0.08257 -11.89619,-0.09591 -1.375,-0.01334 -4.15542,0.264516 -6.1787,0.617452 -2.02329,0.352936 -5.17329,0.152189 -7,-0.446104 -4.57143,-1.497253 -35.75553,-2.316104 -44.3213,-1.163816 -12.34851,1.661152 -18.56822,3.053628 -24.35056,5.451625 -3.10719,1.288588 -7.44944,2.658371 -9.64944,3.043962 -6.42829,1.126677 -21.81633,5.643485 -24.07998,7.068126 -1.14399,0.719977 -6.95602,3.146512 -12.91563,5.392301 -5.95961,2.245788 -11.58405,4.760544 -12.49876,5.588347 -0.91471,0.827805 -2.1476,1.505098 -2.73976,1.505098 -0.59215,0 -3.03172,1.636834 -5.42126,3.63741 -2.38953,2.000575 -6.2788,4.468882 -8.64282,5.485126 -2.36401,1.016244 -6.18901,3.142249 -8.5,4.724455 -2.31098,1.582206 -9.37679,5.250133 -15.70179,8.15095 -6.325,2.900817 -13.57796,6.989564 -16.1177,9.086102 -2.53973,2.09654 -7.26473,5.15827 -10.5,6.80384 -6.31823,3.21367 -11.7445,8.22713 -12.839583,11.86279 -0.372852,1.23787 -2.222493,3.42878 -4.110313,4.86869 -2.62902,2.00525 -3.4324,3.35511 -3.4324,5.76719 0,1.73205 -1.125,4.80477 -2.5,6.82826 -1.375,2.0235 -2.5,4.11843 -2.5,4.65541 0,0.53698 -1.040514,2.24836 -2.312252,3.80305 -2.258458,2.76097 -5.997127,13.42983 -7.786566,22.22016 -0.491901,2.41639 -1.407827,5.01211 -2.035391,5.76828 -4.43959,5.34938 -9.868266,62.2499 -6.549373,68.64707 0.743781,1.43364 1.45325,5.40327 1.576598,8.82139 0.123347,3.41812 0.886983,7.80087 1.696967,9.73943 0.809985,1.93857 1.222746,4.17604 0.917248,4.97215 -0.305498,0.79612 0.08795,2.16991 0.874336,3.05287 0.786384,0.88296 1.664882,4.08038 1.952219,7.10538 0.976208,10.27723 2.261431,15.66994 4.374897,18.35678 1.168133,1.48504 2.419164,5.01442 2.80453,7.91208 0.382636,2.87713 1.496861,6.13114 2.476056,7.23114 0.979196,1.1 3.266525,5.11486 5.082955,8.9219 1.816429,3.80705 5.277774,8.98205 7.691878,11.5 2.414104,2.51796 4.990764,5.93281 5.725924,7.58856 0.73515,1.65575 2.95064,4.47916 4.92331,6.27425 1.97266,1.79508 3.58666,3.89721 3.58666,4.67138 0,0.77418 2.50748,4.02577 5.57217,7.22575 3.06469,3.19999 6.70597,8.19884 8.09173,11.10857 1.5323,3.2174 5.81429,8.66013 10.92784,13.89011 4.62454,4.72983 8.40826,8.78804 8.40826,9.01823 0,1.22564 6.85521,8.69182 9,9.80213 1.375,0.7118 4.97067,3.5903 7.99038,6.39665 3.0197,2.80636 5.9447,5.11066 6.5,5.12067 1.20531,0.0217 8.42151,4.83452 13.70107,9.13785 2.08205,1.69706 5.10071,3.81871 6.70813,4.71476 10.09941,5.62992 13.24908,7.12919 14.977,7.12919 1.06869,0 6.14615,1.3834 11.28324,3.07421 7.68549,2.5296 11.4461,3.15422 21.22742,3.52581 6.53799,0.24837 12.26639,0.68591 12.72978,0.9723 0.4634,0.2864 2.89236,-0.17521 5.39771,-1.0258 2.6987,-0.91623 8.01529,-1.54652 13.0452,-1.54652 6.21325,0 10.02532,-0.57237 14.21505,-2.13433 3.14876,-1.17388 8.87502,-2.51043 12.72502,-2.97011 3.85,-0.45969 10.375,-1.32122 14.5,-1.91452 4.125,-0.5933 11.1,-1.46676 15.5,-1.94102 16.65465,-1.79515 23.11508,-2.76241 25.02669,-3.74701 1.08532,-0.55901 7.42408,-2.65968 14.08613,-4.66817 12.23674,-3.68915 23.49014,-5.5833 35.38718,-5.95629 3.575,-0.11208 7.07239,-0.56603 7.77199,-1.00877 1.45325,-0.9197 32.80225,-2.12047 47.66416,-1.82569 8.68365,0.17224 10.72138,0.56809 16.16554,3.14033 3.42616,1.61879 6.51896,3.41177 6.87287,3.98441 0.35391,0.57265 1.50654,1.04117 2.5614,1.04117 1.05487,0 2.63394,1.09277 3.50907,2.42838 1.45819,2.22548 12.9655,8.46157 21.45497,11.62696 1.925,0.71776 5.40756,2.59215 7.73902,4.16532 2.33145,1.57317 6.14364,3.5323 8.47152,4.35362 2.32789,0.82133 5.14533,2.32188 6.26099,3.33456 3.68598,3.34575 6.96658,4.50134 12.06301,4.24918 4.03098,-0.19945 5.72532,0.24954 8.5,2.25244 11.80317,8.52012 21.92389,14.78082 25.42582,15.72847 2.2218,0.60124 6.51464,2.36315 9.53964,3.91535 6.02722,3.09273 6.46319,3.19626 9.75,2.31543 z M 312.58912,447.9173 c 2.98569,-1.14572 1.42806,-2.36645 -3.01955,-2.36645 -4.41595,0 -11.46788,2.20579 -11.46788,3.58707 0,0.74459 12.00118,-0.26656 14.48743,-1.22062 z"
       id="path3017"
       inkscape:connector-curvature="0" />
    <path
       style="fill:#8f8f8f"
       d="m 617.60169,497.95405 c -5.64794,-1.34533 -9.75974,-1.95082 -30.47046,-4.48697 -4.65875,-0.5705 -8.93375,-1.40464 -9.5,-1.85365 -0.56624,-0.44901 -5.30454,-2.03763 -10.52954,-3.53026 -17.03467,-4.86632 -28.40216,-8.60983 -33.68807,-11.09407 -2.85345,-1.34104 -5.57595,-2.43825 -6.05,-2.43825 -0.47406,0 -1.39545,-0.53352 -2.04753,-1.1856 -1.26588,-1.26588 -11.68677,-4.77511 -14.25296,-4.79967 -0.84621,-0.008 -3.30385,-0.91473 -5.46144,-2.01473 -2.15759,-1.1 -4.7157,-2 -5.68469,-2 -1.76937,0 -8.16557,-2.59722 -14.96503,-6.07665 -2.00735,-1.02721 -5.5558,-2.17244 -7.88544,-2.54496 -2.49923,-0.39965 -5.56668,-1.84593 -7.48229,-3.52786 -1.78562,-1.56779 -3.67993,-2.85053 -4.20958,-2.85053 -0.52965,0 -1.71499,-0.83094 -2.63409,-1.84654 -0.9191,-1.01559 -3.56862,-2.41505 -5.88781,-3.1099 -2.3192,-0.69484 -4.76104,-2.04048 -5.42632,-2.9903 -1.05565,-1.50716 -2.73034,-1.68338 -13.15829,-1.38458 -7.5914,0.21753 -13.24754,0.88508 -15.51045,1.83058 -2.03527,0.85039 -9.68919,1.90825 -17.85889,2.46829 -9.67184,0.66303 -16.07643,1.62503 -19.79712,2.97363 -3.025,1.09644 -7.75,2.01163 -10.5,2.03376 -10.97883,0.0883 -21.89624,2.08203 -34.72025,6.34042 -17.70286,5.87848 -31.6567,9.68464 -35.50509,9.68464 -1.72945,0 -4.37809,0.46902 -5.88585,1.04228 -3.12981,1.18995 -20.84635,1.93393 -53.4257,2.24354 -20.00455,0.19011 -22.8378,0.0175 -25.21482,-1.53582 -1.59727,-1.0438 -4.60895,-1.75437 -7.46311,-1.76082 -4.95164,-0.0112 -13.64348,-2.21173 -15.79762,-3.99951 -0.67669,-0.56159 -3.65071,-1.73928 -6.60895,-2.61708 -2.95823,-0.87779 -6.50695,-2.39864 -7.88603,-3.37965 -1.37908,-0.98101 -6.55408,-3.6785 -11.5,-5.99442 -4.94592,-2.31591 -11.01758,-5.96452 -13.49258,-8.10801 -2.475,-2.14349 -5.81934,-4.90824 -7.43186,-6.14388 -2.91467,-2.23345 -5.87279,-4.96167 -20.95041,-19.32214 -4.33525,-4.12905 -9.80928,-9.0864 -12.16452,-11.01634 -2.35523,-1.92994 -6.44579,-6.74879 -9.09012,-10.70857 -2.64433,-3.95977 -5.83279,-8.19059 -7.08548,-9.40183 -1.252683,-1.21124 -2.277606,-2.80989 -2.277606,-3.55256 0,-0.74267 -2.25,-3.64807 -5,-6.45644 -4.314252,-4.40583 -5,-5.65428 -5,-9.10283 0,-3.10303 -0.782598,-4.9334 -3.5,-8.18592 -1.925,-2.30407 -3.5,-4.65241 -3.5,-5.21852 0,-0.56611 -1.8,-3.72481 -4,-7.01934 -2.2,-3.29452 -4,-6.51364 -4,-7.15359 0,-0.63994 -0.733374,-2.21058 -1.629719,-3.49029 -0.896346,-1.27971 -2.04354,-4.19234 -2.54932,-6.4725 -0.50578,-2.28017 -2.685076,-7.80622 -4.84288,-12.28011 -3.772653,-7.82204 -5.185743,-11.60699 -7.976737,-21.36565 -0.707854,-2.475 -2.122734,-6.32958 -3.144176,-8.56572 -1.021442,-2.23615 -1.857168,-4.76031 -1.857168,-5.60924 0,-0.84892 -1.415096,-4.19435 -3.144657,-7.43427 -4.576218,-8.57246 -9.368453,-30.44353 -8.394335,-38.31054 0.300998,-2.43087 0.0076,-7.03265 -0.652025,-10.22617 -0.933883,-4.52142 -0.932516,-6.86289 0.0062,-10.58024 0.663009,-2.6256 1.395098,-8.14882 1.626863,-12.27382 0.231766,-4.125 0.674425,-8.175 0.983687,-9 0.309262,-0.825 1.229489,-5.1 2.04495,-9.5 1.804839,-9.73841 4.038943,-17.93724 6.035971,-22.15113 0.82133,-1.73312 1.493346,-3.55614 1.493346,-4.05116 0,-1.58149 8.177577,-13.62754 12.664718,-18.65586 2.384405,-2.67199 4.335282,-5.72445 4.335282,-6.78325 0,-3.98825 5.100482,-11.68409 14.147861,-21.34693 12.668357,-13.530131 15.578498,-16.313842 19.919775,-19.054372 2.04458,-1.290687 4.73458,-3.775169 5.97777,-5.521071 2.57542,-3.616835 13.67004,-11.078303 19.08367,-12.834343 1.996,-0.647447 4.41142,-2.04165 5.36761,-3.098229 0.95619,-1.056578 3.91699,-2.64462 6.57955,-3.528981 2.66257,-0.884362 6.51388,-2.743162 8.55849,-4.130666 6.78284,-4.602963 29.90017,-15.246229 41.36527,-19.044654 2.475,-0.819976 6.75,-2.289467 9.5,-3.265536 2.75,-0.976069 7.62471,-2.267025 10.83268,-2.86879 3.20797,-0.601766 8.32485,-2.235074 11.37084,-3.629575 3.04599,-1.394501 6.55383,-2.535456 7.7952,-2.535456 1.24137,0 3.99949,-0.758551 6.12916,-1.685669 2.12966,-0.927117 7.02212,-2.011122 10.87212,-2.408898 3.85,-0.397777 11.95,-1.248303 18,-1.890058 6.18323,-0.655887 28.51554,-1.225088 51,-1.299877 34.32482,-0.114173 40.92222,0.102879 46.5,1.529831 3.575,0.914585 12.8,1.955224 20.5,2.312531 14.98018,0.695132 21.80271,2.538204 25.28671,6.831074 2.06775,2.547825 11.02401,9.222432 17.21329,12.828119 2.475,1.441861 6.80959,4.934851 9.63242,7.7622 7.23649,7.248069 12.6115,20.580047 15.93345,39.520747 1.84425,10.515313 2.97043,15.301913 4.11735,17.500003 0.71745,1.375 1.30723,3.33074 1.31062,4.34609 0.003,1.01535 0.66103,4.16535 1.46143,7 2.02837,7.18359 3.30472,33.70088 2.34184,48.65391 -0.91842,14.26262 -0.22469,35.41629 1.36904,41.74556 0.59306,2.35524 0.81535,5.59695 0.49398,7.2038 -0.32137,1.60685 0.11148,5.53809 0.96188,8.73609 0.93749,3.52548 1.34466,7.88164 1.03427,11.06524 -0.60657,6.22151 1.66199,23.681 3.99535,30.74931 0.90782,2.75 2.25212,6.8 2.98734,9 0.73522,2.2 1.81772,6.24273 2.40554,8.98385 0.58783,2.74111 1.70918,5.69148 2.49189,6.55638 0.78272,0.86489 2.28318,4.26475 3.33437,7.55524 3.95932,12.39375 20.98123,46.98801 26.03138,52.90453 0.93892,1.1 2.99559,4.025 4.57036,6.5 1.57478,2.475 6.05941,7.65 9.96584,11.5 3.90644,3.85 8.40169,8.92634 9.98946,11.28077 4.01412,5.95237 19.04776,21.21923 20.89508,21.21923 0.8367,0 3.15765,1.9125 5.15767,4.25 4.21507,4.9263 10.98916,9.75 13.69226,9.75 1.02953,0 3.77431,1.6875 6.09952,3.75 5.14099,4.56014 5.28746,4.64767 20.22766,12.08751 6.6,3.28663 13.47899,6.23477 15.28665,6.55142 1.80766,0.31665 5.06747,2.00683 7.24402,3.75596 4.54367,3.65139 12.65298,6.91768 18.46933,7.43912 14.57021,1.30622 16.45826,2.75136 17.42884,13.34025 0.49093,5.35597 1.18083,7.56357 2.9533,9.45028 1.87671,1.99767 2.17911,3.08992 1.604,5.79362 -1.16132,5.45955 -6.12839,9.66143 -15.48614,13.10047 -3.74262,1.37544 -16.25615,3.90596 -18,3.64001 -0.275,-0.0419 -3.2,-0.71939 -6.5,-1.50544 z m -21.17643,-25.1532 c 0.94182,-1.59954 -1.33071,-5.25 -3.26829,-5.25 -1.10505,0 -2.73308,-1.10482 -3.61786,-2.45516 -1.61944,-2.47158 -9.31018,-7.54484 -11.4375,-7.54484 -1.73405,0 -14.90953,-11.13986 -15.54554,-13.14374 -0.30618,-0.96468 -1.43414,-2.03245 -2.50659,-2.37283 -1.07245,-0.34038 -2.41566,-1.48915 -2.98492,-2.5528 -0.56925,-1.06366 -2.48127,-2.54544 -4.24894,-3.29283 -1.76766,-0.7474 -5.28579,-3.62149 -7.81806,-6.38686 -3.08854,-3.37284 -5.72199,-5.26057 -8,-5.73462 -4.07613,-0.84822 -18.1748,-14.14284 -23.75634,-22.40152 -6.47605,-9.58222 -10.7845,-14.79825 -18.67986,-22.6148 -5.12709,-5.07591 -10.72002,-12.13132 -12.68343,-16 -0.8374,-1.65 -2.92147,-5.475 -4.63128,-8.5 -1.7098,-3.025 -3.11688,-6.20645 -3.12684,-7.06989 -0.01,-0.86344 -1.36812,-3.08199 -3.01812,-4.93011 -1.65,-1.84812 -3,-3.9721 -3,-4.71995 0,-1.78366 -3.5414,-8.71091 -7.13685,-13.96023 -1.57473,-2.29909 -2.86315,-4.91896 -2.86315,-5.82193 0,-0.90296 -1.07773,-3.52188 -2.39495,-5.81982 -1.31722,-2.29794 -3.38898,-7.55307 -4.60392,-11.67807 -1.21494,-4.125 -2.56604,-8.625 -3.00244,-10 -0.43641,-1.375 -1.52932,-5.2 -2.4287,-8.5 -0.89938,-3.3 -2.06842,-7.37604 -2.59786,-9.05786 -0.52945,-1.68183 -1.25266,-5.95683 -1.60713,-9.5 -0.35448,-3.54318 -1.2262,-7.59848 -1.93716,-9.01177 -0.86021,-1.70998 -1.50825,-9.56166 -1.93708,-23.46982 -0.35444,-11.4951 -0.93801,-21.36376 -1.29683,-21.93036 -0.35883,-0.56661 -0.78258,-7.55519 -0.94168,-15.53019 -0.1591,-7.975 -0.36341,-16.525 -0.45402,-19 -0.0906,-2.475 -0.0834,-7.425 0.016,-11 0.0994,-3.575 0.11899,-7.625 0.0435,-9 -0.0755,-1.375 0.21841,-8.22224 0.6531,-15.21609 0.53732,-8.6451 0.44925,-13.12712 -0.27511,-14 -0.586,-0.70615 -1.38641,-4.65891 -1.77869,-8.78391 -0.39227,-4.125 -1.15534,-8.05607 -1.6957,-8.7357 -0.54036,-0.67963 -1.79985,-4.34901 -2.79887,-8.15417 -2.21708,-8.444718 -5.02089,-12.968191 -12.40788,-20.018023 -3.11658,-2.97434 -6.27483,-6.57434 -7.01833,-8 -0.98721,-1.892977 -3.19093,-3.226184 -8.17055,-4.943009 -3.75031,-1.292994 -7.44428,-3.243978 -8.20883,-4.33552 -1.75117,-2.500146 -8.23672,-5.307436 -14.37728,-6.223246 -2.8688,-0.427855 -6.69065,-2.059289 -9.74323,-4.159092 -5.79209,-3.984258 -13.974,-7.431243 -17.63912,-7.431243 -1.3908,0 -3.37705,-0.454011 -4.4139,-1.008914 -1.03684,-0.554902 -10.34476,-1.236266 -20.68425,-1.514142 -63.81958,-1.715164 -61.74872,-1.727723 -72.85397,0.441827 -5.74482,1.122321 -12.13263,2.875006 -14.19512,3.894854 -2.0625,1.019847 -6.45,2.418868 -9.75,3.108934 -8.93252,1.867887 -21.78745,5.657608 -25.2307,7.438182 -1.66777,0.862437 -7.4112,3.208435 -12.76317,5.213329 -9.15628,3.430021 -16.35237,7.386216 -21.06171,11.579106 -1.13057,1.006584 -4.91287,3.214244 -8.40512,4.905912 -3.49225,1.691669 -7.74224,4.10104 -9.44442,5.354158 -1.70218,1.253119 -8.26988,4.670402 -14.59488,7.593963 -6.325,2.923561 -13.3,6.743069 -15.5,8.487794 -2.2,1.74473 -7.01272,4.84698 -10.69494,6.89389 -6.29427,3.49893 -12.805056,9.44048 -12.805056,11.68551 0,0.55264 -1.8,2.76916 -4,4.9256 -3.014026,2.95435 -4,4.7084 -4,7.11601 0,1.86751 -1.038819,4.55717 -2.5,6.47288 -1.375,1.80272 -2.5,3.697 -2.5,4.20953 0,0.51252 -0.953892,2.14454 -2.11976,3.6267 -2.093694,2.6617 -7.847455,19.38724 -7.86908,22.87454 -0.0061,0.98981 -0.762096,3.23981 -1.679908,5 -5.343907,10.2486 -10.404997,61.78948 -6.759666,68.83877 0.785628,1.51924 1.428414,5.47549 1.428414,8.79167 0,3.31619 0.723495,7.83762 1.607768,10.04763 0.884272,2.21002 1.353392,4.6811 1.042489,5.4913 -0.310903,0.8102 0.04441,2.08278 0.789591,2.82796 0.745177,0.74518 1.593706,3.7957 1.885619,6.77894 1.009631,10.31806 2.283192,15.6111 4.405319,18.30895 2.040201,2.59369 3.150852,5.93252 3.730763,11.21538 0.147537,1.34403 0.950598,3.2213 1.784581,4.17171 0.833983,0.95042 3.006552,4.87803 4.827931,8.72803 1.821379,3.85 5.362325,9.1628 7.868769,11.80623 2.506443,2.64342 5.181996,6.01842 5.945686,7.5 0.76368,1.48157 3.12618,4.59622 5.25,6.92143 2.12381,2.32521 3.86148,4.69727 3.86148,5.27124 0,0.57397 2.41631,3.53828 5.36958,6.58736 2.95326,3.04908 6.5291,7.91185 7.9463,10.80616 1.4394,2.93963 6.13154,8.94852 10.63043,13.61363 4.42953,4.59319 8.05369,8.6944 8.05369,9.11379 0,1.1128 9.53573,10.88016 10.62214,10.88016 0.5068,0 3.16164,2.11168 5.89966,4.69262 2.73801,2.58095 6.5532,5.51768 8.4782,6.52608 6.16043,3.22711 8.06865,4.47373 10.81377,7.06454 4.77982,4.51111 19.39278,12.71676 22.64656,12.71676 0.71198,0 5.51217,1.37189 10.66709,3.04865 12.71459,4.13571 35.40816,5.99277 43.27113,3.54096 3.11485,-0.97127 8.2168,-1.53731 13.10145,-1.45355 6.24449,0.10707 9.20691,-0.359 13.5,-2.12392 4.81705,-1.98032 14.00042,-3.47354 27.5,-4.4715 2.2,-0.16263 6.025,-0.83497 8.5,-1.49408 2.475,-0.65911 5.97867,-0.96489 7.78594,-0.67951 1.80726,0.28538 5.12634,-0.13046 7.37572,-0.92409 2.24939,-0.79363 5.92424,-1.44296 8.16634,-1.44296 2.2421,0 7.92302,-1.31345 12.62427,-2.91878 13.09165,-4.47039 18.75942,-5.87947 28.47421,-7.07907 4.90957,-0.60624 9.36464,-1.37306 9.90017,-1.70403 0.53552,-0.33097 3.7186,-0.68926 7.07351,-0.79619 3.35491,-0.10694 16.4149,-0.68944 29.0222,-1.29446 30.38587,-1.4582 33.80313,-1.10635 44.93493,4.62659 4.87151,2.50885 9.08717,5.1606 9.36813,5.89278 0.28096,0.73217 4.84518,3.34273 10.14271,5.80122 5.29753,2.4585 11.65687,5.57691 14.13187,6.9298 2.475,1.35289 7.33945,3.84502 10.80989,5.53808 3.47044,1.69305 8.15045,4.41158 10.40004,6.04117 3.39487,2.45924 5.05943,2.96289 9.79223,2.96289 4.47679,0 6.43222,0.53008 9.09996,2.4668 11.19106,8.12452 19.56741,13.24816 24.62475,15.06245 2.62522,0.94179 7.02313,2.75572 9.77313,4.03098 4.82996,2.23979 12.91761,3.22841 13.82357,1.68977 z M 312.75178,448.49378 c 4.21255,-1.6016 2.54395,-2.94293 -3.66099,-2.94293 -5.40217,0 -14.9891,3.03119 -14.9891,4.73925 0,0.77271 15.92817,-0.76144 18.65009,-1.79632 z"
       id="path3015"
       inkscape:connector-curvature="0" />
    <path
       style="fill:#6e6e6e"
       d="m 614.10169,496.46515 c -4.125,-1.06045 -11.775,-2.20574 -17,-2.5451 -9.79481,-0.63616 -13.46672,-1.40406 -28,-5.85563 -4.675,-1.43196 -13,-3.97306 -18.5,-5.64688 -8.66979,-2.6385 -15.14817,-5.257 -25.5,-10.3069 -1.375,-0.67076 -5.425,-2.01062 -9,-2.97745 -3.575,-0.96684 -8.42454,-2.61839 -10.77675,-3.67012 -2.35221,-1.05172 -5.16635,-1.91222 -6.25363,-1.91222 -1.08728,0 -3.65607,-0.9 -5.70844,-2 -2.05236,-1.1 -4.275,-2 -4.93921,-2 -0.66421,0 -2.69587,-0.85021 -4.51481,-1.88935 -1.81894,-1.03915 -4.98141,-2.18206 -7.02772,-2.5398 -2.04631,-0.35774 -4.97131,-1.66907 -6.5,-2.91407 -4.9406,-4.02375 -12.57808,-8.65678 -14.27055,-8.65678 -0.90652,0 -2.66175,-1.16566 -3.9005,-2.59035 -1.80623,-2.07735 -2.78265,-2.44926 -4.93034,-1.87794 -1.47293,0.39183 -6.60933,0.64272 -11.41422,0.55753 -5.75944,-0.10212 -9.67792,0.31977 -11.5,1.23818 -3.25234,1.63931 -12.40311,2.8428 -24.26383,3.19113 -5.37509,0.15786 -9.97054,0.88879 -12.5,1.98819 -3.45496,1.50166 -13.18057,2.85276 -28.00608,3.89064 -2.20334,0.15425 -11.42834,2.6391 -20.5,5.52188 -24.37773,7.74674 -25.212,7.97706 -32.78479,9.05108 -3.83414,0.54378 -8.03721,1.37582 -9.34015,1.84899 -1.30294,0.47316 -9.79398,0.96995 -18.86898,1.10397 -19.23013,0.28399 -29.16193,0.68833 -37.5,1.52668 -6.57673,0.66125 -18.79925,-0.9851 -21.98308,-2.96107 -1.1093,-0.68847 -4.41333,-1.31459 -7.34228,-1.39137 -3.39826,-0.0891 -8.64541,-1.40923 -14.5,-3.64809 -12.88972,-4.92916 -34.40648,-16.09336 -39.24066,-20.36043 -2.23632,-1.97396 -6.25132,-5.38902 -8.92224,-7.58902 -2.67092,-2.2 -6.52381,-5.575 -8.56198,-7.5 -2.03817,-1.925 -8.28291,-7.775 -13.8772,-13 -5.59429,-5.225 -11.09236,-10.4 -12.21794,-11.5 -1.93902,-1.89496 -10.01805,-12.99935 -14.354616,-19.73 -1.1,-1.70727 -3.714264,-4.90866 -5.809475,-7.11419 -2.768777,-2.91456 -4.065192,-5.35844 -4.745524,-8.94582 -0.58797,-3.10035 -2.053293,-6.20824 -3.940525,-8.35767 -1.652462,-1.88205 -3.004476,-3.87812 -3.004476,-4.43571 0,-0.55759 -1.8,-3.72376 -4,-7.03592 -2.2,-3.31217 -4,-6.49153 -4,-7.06525 0,-0.57372 -0.830609,-2.6794 -1.845798,-4.67929 -1.015189,-1.99988 -2.627267,-6.11115 -3.582396,-9.13615 -0.955128,-3.025 -2.978754,-7.975 -4.496947,-11 -1.518192,-3.025 -4.017053,-9.55 -5.553024,-14.5 -1.535971,-4.95 -3.631736,-10.82958 -4.657255,-13.06572 -1.025519,-2.23615 -1.857813,-4.71115 -1.849542,-5.5 0.0083,-0.78886 -1.513963,-4.58428 -3.382741,-8.43428 -5.002983,-10.30699 -8.528025,-26.46177 -8.728171,-40 -0.05692,-3.85 -0.422086,-8.125 -0.811487,-9.5 -0.3894,-1.375 -0.324104,-4.3 0.145103,-6.5 0.469206,-2.2 1.512267,-9.85 2.317913,-17 0.805646,-7.15 2.384438,-16.375 3.508428,-20.5 1.12399,-4.125 2.491616,-9.27635 3.039169,-11.44745 1.811035,-7.18092 8.967889,-20.11293 14.976791,-27.06218 3.255976,-3.76551 5.919957,-7.68124 5.919957,-8.70162 0,-3.73528 5.078753,-11.71257 12.038943,-18.90978 3.924775,-4.05844 8.634822,-9.17897 10.46677,-11.37897 1.831948,-2.200003 5.2306,-5.350003 7.552561,-7.000003 2.321962,-1.65 7.002612,-5.7 10.401452,-9 4.01186,-3.895194 8.96166,-7.372237 14.10999,-9.911724 4.36165,-2.151448 9.13805,-4.748419 10.61421,-5.771048 1.47616,-1.022628 4.54339,-2.515381 6.81607,-3.317228 2.27268,-0.801847 5.56473,-2.479876 7.31567,-3.728952 4.10379,-2.927535 23.70531,-12.771048 25.43116,-12.771048 0.72581,0 3.58626,-1.148576 6.35656,-2.55239 5.70349,-2.890178 20.72536,-7.977009 26.53277,-8.984751 4.7138,-0.81797 10.28315,-2.611949 16.69675,-5.378301 2.65809,-1.146507 6.03309,-2.100504 7.5,-2.119993 1.4669,-0.01949 3.79209,-0.678544 5.16709,-1.464565 1.375,-0.786021 4.3,-1.44569 6.5,-1.465932 2.2,-0.02024 7.67348,-0.683298 12.16329,-1.47346 8.04941,-1.416615 41.62934,-3.171634 52.33671,-2.735322 3.025,0.123265 13.94463,0.210556 24.26584,0.193981 13.85994,-0.02226 20.78777,0.406 26.5,1.638156 4.25379,0.917562 11.10916,1.775858 15.23416,1.907324 14.95693,0.476688 25.82276,2.175741 29.26214,4.575622 1.78082,1.2426 3.54842,2.756256 3.92799,3.363679 0.37957,0.607423 5.78876,4.557706 12.02042,8.778407 6.23167,4.2207 13.20793,9.596298 15.5028,11.945773 6.2085,6.356201 10.7025,17.843923 14.33517,36.644094 1.66082,8.595221 3.42476,16.361721 3.91986,17.258891 0.49511,0.89717 1.92147,5.62217 3.16968,10.5 2.14489,8.38194 2.28149,11.00021 2.48831,47.69591 0.12036,21.35492 0.51586,39.57992 0.87887,40.5 0.73208,1.85549 2.11919,16.10004 3.42506,35.17288 0.97081,14.17911 2.64117,25.33077 4.24231,28.32252 0.59837,1.11807 2.10194,6.1154 3.34126,11.10517 1.23932,4.98977 3.16382,11.09731 4.27666,13.57231 1.11284,2.475 3.26295,7.65 4.77801,11.5 3.44534,8.75509 17.65451,37.59829 21.24816,43.13163 1.47581,2.2724 4.4833,6.72409 6.6833,9.89265 2.2,3.16856 4.62419,6.70933 5.38709,7.86837 0.76289,1.15904 3.16861,3.56535 5.34604,5.34735 2.17742,1.78199 5.80845,5.60699 8.06895,8.5 7.4986,9.59674 18.08825,20.9806 21.66754,23.29255 1.94171,1.2542 6.12204,4.76268 9.28964,7.79661 3.765,3.60615 7.42699,6.07019 10.57557,7.11598 2.64898,0.87985 6.27177,3.10137 8.05065,4.9367 1.77888,1.83534 6.24487,4.78375 9.92442,6.55201 3.67956,1.76827 10.0651,4.91631 14.1901,6.99564 4.125,2.07934 8.97899,4.06289 10.78665,4.40789 1.80766,0.345 4.95902,1.97123 7.00302,3.61384 4.73291,3.80346 13.88696,6.98311 22.21033,7.71474 3.575,0.31424 7.55009,1.22795 8.83353,2.03047 3.21719,2.01168 5.48749,7.87349 4.86035,12.54917 -0.41255,3.07585 -0.0233,4.39785 2.00428,6.80753 10.093,11.99485 -17.98903,25.6992 -40.69816,19.86117 z m -16.35866,-23.42202 c 0.80086,-2.08702 -2.28607,-6.49228 -4.54938,-6.49228 -1.02407,0 -2.56153,-1.06772 -3.41659,-2.3727 -0.85506,-1.30499 -4.82634,-4.0348 -8.82505,-6.06625 -7.46926,-3.79457 -15.36473,-10.1781 -17.63226,-14.25576 -0.70506,-1.26791 -1.92673,-2.30529 -2.71481,-2.30529 -0.78809,0 -1.91376,-0.89853 -2.5015,-1.99673 -0.58774,-1.09821 -2.79877,-2.87939 -4.9134,-3.9582 -2.11463,-1.0788 -5.60224,-3.95804 -7.75026,-6.39831 -2.59776,-2.95122 -5.32017,-4.86071 -8.13046,-5.7027 -3.22609,-0.96656 -6.32914,-3.44087 -13.12486,-10.46554 -4.89494,-5.05984 -9.80007,-10.94994 -10.90029,-13.08912 -1.92455,-3.74189 -5.25193,-7.65765 -20.87709,-24.56868 -7.23531,-7.83075 -9.2824,-11.02203 -15.92156,-24.82072 -1.98473,-4.125 -4.39568,-8.4 -5.35769,-9.5 -0.962,-1.1 -2.25888,-3.52233 -2.88195,-5.38296 -0.62307,-1.86063 -2.9354,-6.2371 -5.13852,-9.72549 -2.20312,-3.48839 -4.00735,-7.14106 -4.00941,-8.11704 -0.002,-0.97598 -0.94862,-3.32446 -2.10348,-5.21884 -2.32112,-3.80747 -5.79187,-14.02725 -9.69782,-28.55567 -0.59147,-2.2 -1.77842,-6.33797 -2.63766,-9.19549 -0.85925,-2.85751 -2.04906,-8.69545 -2.64404,-12.97318 -0.59498,-4.27773 -1.46897,-8.50116 -1.94219,-9.38539 -0.47323,-0.88423 -1.15005,-10.56608 -1.50406,-21.51521 -0.354,-10.94913 -0.91874,-20.35263 -1.25498,-20.89667 -1.30519,-2.11185 -1.74995,-50.06568 -0.65167,-70.26308 0.47533,-8.74127 0.36605,-13.66018 -0.32212,-14.5 -0.57282,-0.69904 -1.3673,-4.42098 -1.76553,-8.27098 -0.39822,-3.85 -1.28375,-8.125 -1.96784,-9.5 -0.6841,-1.375 -1.93091,-5.24756 -2.7707,-8.605693 -1.90752,-7.627777 -4.8813,-12.379232 -12.13825,-19.39431 -3.1293,-3.025 -6.31937,-6.668386 -7.08904,-8.096414 -0.97816,-1.814857 -3.29691,-3.277323 -7.70314,-4.858466 -3.46706,-1.244129 -7.65542,-3.544103 -9.30747,-5.111054 -3.18288,-3.018937 -10.13993,-5.934066 -14.16183,-5.934066 -2.72485,0 -8.23598,-2.647929 -13.11365,-6.300708 -1.80357,-1.350651 -5.40357,-2.991663 -8,-3.646695 -2.59644,-0.655031 -7.19579,-1.826138 -10.22079,-2.602459 -3.32896,-0.854328 -12.99995,-1.601739 -24.5,-1.893452 -10.45,-0.265078 -27.1,-0.732835 -37,-1.03946 -9.95904,-0.308454 -20.90368,-0.118775 -24.5,0.424603 -14.61515,2.208245 -17.82286,2.92679 -21.57393,4.832682 -2.15934,1.097145 -7.07607,2.691115 -10.92607,3.542156 -11.28103,2.493666 -21.80946,5.534158 -24.51079,7.078439 -1.38094,0.789446 -7.43189,3.283805 -13.44656,5.543019 -6.01467,2.259214 -11.67025,4.772359 -12.56795,5.584768 -0.8977,0.812409 -2.0004,1.477107 -2.45045,1.477107 -0.45005,0 -2.66461,1.509343 -4.92126,3.354096 -2.25664,1.844753 -6.82747,4.70317 -10.15739,6.352036 -3.32992,1.648867 -8.00994,4.414524 -10.40004,6.145904 -2.3901,1.73138 -4.71316,3.147964 -5.16235,3.147964 -2.01292,0 -22.21173,10.345299 -25.13257,12.872243 -1.78785,1.54675 -6.26336,4.48313 -9.94558,6.52529 -6.29166,3.48936 -12.805056,9.42889 -12.805056,11.67687 0,0.55264 -1.8,2.76916 -4,4.9256 -2.918251,2.86047 -4,4.73757 -4,6.94098 0,1.76025 -1.505763,5.37407 -3.609458,8.66268 -4.926455,7.70128 -7.749626,14.37916 -10.220814,24.17611 -1.148672,4.55388 -2.35499,8.71097 -2.680707,9.23799 -1.022179,1.65392 -3.176805,11.15853 -4.416484,19.48224 -0.655308,4.4 -1.628482,10.7 -2.16261,14 -1.418188,8.76199 -1.8044,31.55421 -0.584598,34.5 0.569365,1.375 1.36967,5.875 1.778455,10 0.681042,6.8723 2.646602,16.30353 4.168194,20 0.339598,0.825 0.823955,3.75 1.07635,6.5 0.685435,7.46826 2.07128,12.46807 4.913282,17.726 1.404967,2.5993 2.875735,6.6493 3.268373,9 0.392638,2.3507 1.488331,5.399 2.434873,6.774 0.946541,1.375 2.997348,5.2 4.557347,8.5 1.56,3.3 5.230686,8.55409 8.15708,11.67576 2.926394,3.12167 5.320713,6.14415 5.320713,6.71662 0,0.57247 1.9125,3.23955 4.25,5.92684 2.3375,2.6873 5.03085,6.18982 5.98521,7.78338 0.95437,1.59357 4.208,5.8224 7.2303,9.3974 3.0223,3.575 5.50395,7.02209 5.51479,7.6602 0.0445,2.62131 14.66572,19.3398 16.91368,19.3398 0.53418,0 1.28814,1.0125 1.67546,2.25 1.39806,4.46683 9.218,12.0571 15.12826,14.68395 1.20874,0.53723 2.92148,2.08141 3.80611,3.43151 0.88462,1.35011 4.03622,3.64256 7.00356,5.09435 2.96734,1.45178 7.54122,4.413 10.16418,6.58048 2.62295,2.16749 6.13238,4.65746 7.79873,5.53326 1.66635,0.87581 5.27972,2.89453 8.02972,4.48606 2.75,1.59152 5.96082,2.90418 7.13517,2.91703 2.21055,0.0242 10.01309,2.20401 16.70982,4.66829 2.11474,0.77819 10.26014,1.82147 18.10087,2.31841 11.41472,0.72345 15.03298,0.62659 18.15502,-0.48602 2.14451,-0.76424 7.62286,-1.40929 12.1741,-1.43343 5.91716,-0.0314 9.90624,-0.6534 14,-2.183 3.14876,-1.17652 9.10002,-2.52872 13.22502,-3.00489 4.125,-0.47618 10.65,-1.31314 14.5,-1.85992 3.85,-0.54678 11.05,-1.4372 16,-1.97872 17.3574,-1.89885 22.09015,-2.82508 33,-6.45826 11.86497,-3.95127 31.99314,-7.81418 39.88947,-7.65543 2.68921,0.0541 6.65908,-0.3782 8.82194,-0.9606 2.16286,-0.58239 10.22034,-1.05021 17.90552,-1.03959 7.68518,0.0106 15.90769,-0.34213 18.27225,-0.78388 7.26537,-1.35731 22.499,1.128 29.21707,4.76666 3.1619,1.71256 6.33053,3.11374 7.04139,3.11374 0.71087,0 2.29058,1.35 3.51048,3 1.2199,1.65 2.59262,3 3.0505,3 0.90363,0 16.42197,7.11797 21.29138,9.76595 1.65,0.89727 6.6,3.50039 11,5.78471 4.4,2.28432 9.79451,5.37492 11.9878,6.868 3.17476,2.16122 4.67866,2.58509 7.3763,2.07901 4.12719,-0.77426 8.40398,0.81688 13.25647,4.93196 5.39657,4.57648 15.46053,10.61117 21.25724,12.74656 5.42101,1.99699 7.01735,2.65372 12.62219,5.19275 4.58646,2.07769 11.86413,2.1487 12.64134,0.12334 z M 303.58391,450.5055 c 13.5425,-1.55134 18.44422,-5.95465 6.62864,-5.95465 -5.94213,0 -17.17668,3.69747 -17.90889,5.8941 -0.44938,1.34814 0.0183,1.35065 11.28025,0.0606 z"
       id="path3013"
       inkscape:connector-curvature="0" />
    <path
       style="fill:#4d4d4d"
       d="m 616.60169,496.02676 c -5.31738,-1.54387 -9.21444,-2.079 -22,-3.02092 -4.4,-0.32415 -11.825,-1.71338 -16.5,-3.08717 -21.97778,-6.45838 -38.21513,-11.99812 -45.82603,-15.63459 -7.98463,-3.81503 -10.8287,-4.79029 -19.67397,-6.74644 -2.2,-0.48654 -5.78265,-1.8076 -7.96144,-2.9357 -2.17879,-1.1281 -4.70909,-2.05109 -5.62288,-2.05109 -1.60529,0 -7.01637,-2.13054 -15.4814,-6.0956 -2.23615,-1.04742 -4.96849,-1.9044 -6.07187,-1.9044 -1.10337,0 -3.77379,-1.33748 -5.93427,-2.97218 -2.16048,-1.6347 -4.4122,-2.9847 -5.00383,-3 -0.59162,-0.0153 -2.12609,-1.14593 -3.40993,-2.51251 -1.28383,-1.36658 -3.84947,-2.76895 -5.70141,-3.11637 -1.85194,-0.34743 -3.79685,-1.43457 -4.32203,-2.41586 -1.48734,-2.77914 -22.59418,-2.6741 -30.63624,0.15245 -4.24074,1.4905 -9.03167,2.13632 -17.82698,2.40309 -8.82827,0.26777 -13.53747,0.90505 -17.70335,2.39574 -3.1216,1.11701 -8.9716,2.25295 -13,2.52431 -14.0263,0.94485 -21.41106,2.39411 -35.08549,6.88554 -12.54268,4.11971 -19.33425,5.91547 -38.89061,10.2831 -3.65845,0.81706 -8.83345,1.44345 -11.5,1.39198 -9.15332,-0.1767 -38.85151,0.80224 -45.84827,1.51129 -7.25153,0.73486 -21.2018,-0.83238 -22.94746,-2.57804 -0.5239,-0.5239 -2.77504,-0.95788 -5.00254,-0.96441 -8.56735,-0.0251 -21.86358,-4.9116 -40.04575,-14.71718 -6.59766,-3.5581 -13.87778,-8.11215 -16.17806,-10.12011 -2.30027,-2.00796 -6.12718,-5.14908 -8.50425,-6.98027 -2.37707,-1.83119 -7.24694,-6.13155 -10.82194,-9.55636 -3.575,-3.4248 -10.775,-10.21328 -16,-15.0855 -9.13442,-8.51769 -12.08242,-12.02896 -19.40221,-23.10939 -1.84597,-2.79438 -5.389938,-7.37043 -7.875471,-10.16901 -3.141353,-3.53699 -4.731147,-6.34311 -5.214494,-9.20402 -0.382438,-2.26363 -1.695906,-5.33758 -2.918818,-6.83099 -1.222911,-1.49342 -4.024714,-5.8653 -6.226228,-9.7153 -6.427429,-11.24026 -5.135532,-8.40702 -13.907353,-30.5 -2.074541,-5.225 -4.387868,-11.3 -5.140728,-13.5 -0.75286,-2.2 -1.755363,-4.9 -2.227783,-6 -0.47242,-1.1 -1.441295,-4.025 -2.153055,-6.5 -0.711761,-2.475 -1.670215,-5.00474 -2.129898,-5.62164 -0.459683,-0.6169 -1.909051,-4.2169 -3.220817,-8 -1.311766,-3.7831 -3.127912,-8.32151 -4.03588,-10.08537 -5.484988,-10.65535 -10.542388,-49.00392 -7.499481,-56.86604 0.623055,-1.60982 1.326449,-6.30195 1.563099,-10.42695 0.691152,-12.04735 2.386344,-20.7486 6.35536,-32.62143 4.345773,-12.99985 8.926854,-21.56018 15.966425,-29.83529 2.787035,-3.27619 5.071732,-6.65119 5.077105,-7.5 0.02397,-3.787 5.28138,-12.14791 11.974579,-19.04328 4.004054,-4.125 8.835836,-9.39546 10.737293,-11.71212 1.901457,-2.316661 5.882733,-5.822093 8.847275,-7.789847 2.96455,-1.967754 6.61294,-5.180973 8.10753,-7.140485 1.4946,-1.959513 4.99132,-4.886814 7.7705,-6.505114 2.77918,-1.6183 5.72805,-3.334967 6.55305,-3.814815 0.825,-0.479848 3.02229,-1.438973 4.88286,-2.131388 1.86057,-0.692415 4.56057,-2.239388 6,-3.437718 1.43943,-1.19833 4.2825,-2.721565 6.31795,-3.384967 2.03545,-0.663402 5.33705,-2.316569 7.33691,-3.673706 10.55035,-7.159663 47.63892,-22.467952 59.13223,-24.406797 2.84347,-0.479675 8.61497,-2.251591 12.82556,-3.937591 4.21058,-1.686 8.53606,-3.065455 9.61217,-3.065455 1.07611,0 3.6296,-0.727347 5.67444,-1.616327 6.08295,-2.64453 33.26194,-5.188607 58.21788,-5.449461 41.2329,-0.430989 59.39957,-0.02852 64.5,1.42894 2.75,0.785821 9.95,1.745586 16,2.132812 24.70491,1.581221 24.32051,1.489913 30.74233,7.302357 2.34172,2.119512 8.79004,6.875106 14.32961,10.567986 10.46591,6.976966 16.62037,13.237376 19.77157,20.111945 3.28157,7.158996 5.80633,15.822442 7.292,25.021748 2.64553,16.381173 2.97242,17.983863 4.07927,20.000003 4.23205,7.7087 5.63126,21.84161 5.86991,59.2899 0.12019,18.85944 0.53977,35.50944 0.93241,37 0.76255,2.89482 1.93043,14.97052 3.40531,35.2101 1.14542,15.71862 2.65397,25.93903 4.45623,30.19093 0.77143,1.81999 2.35853,7.43305 3.52688,12.47347 1.16835,5.04042 2.78979,10.44042 3.60321,12 0.81342,1.55958 1.48172,3.37583 1.48511,4.03611 0.006,1.22443 6.10278,14.46507 15.33236,33.29949 6.88384,14.04757 21.76707,36.11638 27.77133,41.17925 2.62345,2.21213 5.92877,5.77321 7.34516,7.91352 4.47691,6.76507 19.70397,22.90594 22.20016,23.53244 1.31785,0.33076 4.41427,2.96369 6.88094,5.85095 3.36372,3.93729 5.90884,5.79451 10.18124,7.42946 3.13301,1.19894 8.19157,4.23407 11.24126,6.74473 5.40235,4.44752 10.93779,7.62242 18.05371,10.35487 1.925,0.73918 4.625,2.11216 6,3.05106 1.375,0.9389 4.75,2.46379 7.5,3.38865 2.75,0.92486 7.025,2.8883 9.5,4.36319 7.18994,4.28461 15.97781,7.27626 23.19766,7.89717 5.70253,0.49043 7.11403,1.01085 9.5,3.50267 2.46613,2.57552 2.80234,3.68574 2.80234,9.2536 0,4.62206 0.47157,6.84823 1.75,8.26144 3.60282,3.98262 1.45662,10.4825 -4.65111,14.08615 -8.53633,5.03656 -23.3883,7.19584 -32.09889,4.66676 z m -11.74692,-22.22591 c 0.24132,-0.72935 -0.44456,-1.25 -1.64669,-1.25 -1.13316,0 -2.81248,-1.148 -3.73184,-2.55111 -0.91935,-1.40311 -3.06722,-3.26643 -4.77305,-4.1407 -1.70582,-0.87427 -4.4515,-2.72211 -6.1015,-4.10633 -1.65,-1.38421 -5.4563,-3.6067 -8.45845,-4.93888 -3.58947,-1.59279 -7.78608,-4.79169 -12.25643,-9.34256 -3.73889,-3.80623 -7.22925,-6.92042 -7.75637,-6.92042 -0.52711,0 -1.43756,-0.89534 -2.02321,-1.98965 -0.58566,-1.09431 -2.51399,-2.73073 -4.28518,-3.63649 -1.7712,-0.90577 -5.09426,-3.61677 -7.38459,-6.02445 -2.29033,-2.40768 -6.00948,-5.02865 -8.26478,-5.82436 -4.83731,-1.7067 -17.7339,-14.29706 -23.42065,-22.86452 -3.76999,-5.67973 -16.2542,-20.50713 -22.17814,-26.3408 -3.68937,-3.63316 -17.4722,-26.11233 -17.4722,-28.49637 0,-0.86816 -0.69419,-2.1546 -1.54264,-2.85875 -0.84846,-0.70415 -3.10333,-4.47175 -5.01083,-8.37245 -1.9075,-3.90069 -4.58091,-8.89216 -5.9409,-11.09216 -1.36,-2.2 -2.48181,-4.9 -2.49292,-6 -0.0111,-1.1 -0.97671,-3.5691 -2.1458,-5.48688 -2.1531,-3.53196 -5.2555,-11.62146 -6.90821,-18.01312 -0.49775,-1.925 -2.08314,-7.775 -3.52309,-13 -1.43995,-5.225 -3.44602,-14.1053 -4.45795,-19.73401 -1.01192,-5.6287 -2.06352,-10.59589 -2.33688,-11.03821 -0.27337,-0.44231 -0.78993,-9.32502 -1.14792,-19.73934 -0.35799,-10.41432 -0.89101,-19.32365 -1.18449,-19.79851 -0.74909,-1.21204 -1.30995,-27.70835 -1.05182,-49.68993 0.42838,-36.47923 -0.36759,-45.41857 -5.16318,-57.98589 -1.15135,-3.017232 -2.09337,-6.174192 -2.09337,-7.015463 0,-3.263655 -4.86056,-10.2362 -13.18981,-18.920964 -7.2267,-7.535155 -9.66808,-9.419301 -14.5,-11.190444 -3.1956,-1.17135 -7.16019,-3.371171 -8.81019,-4.888491 -3.88198,-3.569822 -6.02919,-4.605573 -11.38992,-5.494159 -5.05657,-0.83817 -9.91801,-2.923203 -15.61008,-6.695039 -3.99754,-2.648962 -6.29189,-3.423738 -18.5,-6.247238 -5.7698,-1.334443 -10.96023,-1.549417 -35,-1.449604 -1.925,0.008 -9.8,-0.495482 -17.5,-1.118833 -22.95164,-1.85804 -42.29675,0.03587 -56,5.482471 -3.3,1.311644 -8.25,2.862289 -11,3.445878 -10.46391,2.220592 -20.24969,5.176071 -27,8.154485 -8.56467,3.778954 -9.82256,4.299258 -15.5,6.411301 -5.19685,1.933261 -11.78518,5.834586 -18.46952,10.936858 -2.57602,1.966321 -5.25444,3.575129 -5.95204,3.575129 -0.6976,0 -3.97593,1.749979 -7.28516,3.888842 -5.61396,3.628478 -13.90515,7.839531 -26.51568,13.467178 -2.90268,1.295367 -6.14775,3.334448 -7.21127,4.531292 -1.06352,1.196841 -4.43852,3.593471 -7.5,5.325841 -8.33744,4.71783 -11.87769,7.65029 -15.343757,12.7095 -1.724767,2.51754 -4.1512,5.38435 -5.392071,6.37068 -1.240871,0.98633 -2.566576,3.46133 -2.94601,5.5 -0.379435,2.03867 -1.697407,5.30799 -2.928827,7.26515 -6.08555,9.67209 -12.455661,25.96311 -12.455661,31.85428 0,0.70674 -0.60582,2.70299 -1.346266,4.43611 -2.317445,5.42431 -3.653734,10.18955 -3.653734,13.02931 0,1.5049 -0.416819,4.62295 -0.926265,6.929 -3.056712,13.83648 -4.857344,44.38261 -2.835906,48.10866 0.62188,1.14629 1.465382,5.45916 1.874447,9.58416 0.937356,9.45225 2.729061,19.08743 3.80324,20.45252 0.453341,0.57611 1.050238,4.01334 1.326438,7.63828 0.353652,4.64144 1.575213,8.96732 4.130114,14.62586 1.995363,4.41928 3.627932,8.98431 3.627932,10.1445 0,3.42334 9.740449,20.97683 15.865914,28.59233 6.698952,8.32849 9.212552,11.65789 12.869622,17.04651 1.49307,2.2 5.01366,6.7 7.82353,10 2.80987,3.3 7.33023,9.42174 10.04523,13.60386 2.715,4.18213 7.17722,9.53854 9.91603,11.90314 2.73882,2.36459 5.87967,5.8912 6.97967,7.83691 1.1,1.9457 4.475,5.48658 7.5,7.86862 3.025,2.38203 7.32421,5.90716 9.55379,7.83362 2.22959,1.92646 6.27959,4.66858 9,6.09361 2.72042,1.42502 6.07121,3.59041 7.44621,4.81196 1.375,1.22156 4.69591,3.47285 7.3798,5.00287 2.68389,1.53002 6.41134,3.82118 8.28321,5.09147 1.87188,1.27029 4.85097,2.60761 6.6202,2.97182 1.76924,0.36421 8.18903,2.19351 14.26622,4.06512 9.5083,2.92829 12.9685,3.48176 24.8086,3.96817 9.16176,0.37638 14.92475,0.18058 17.24751,-0.586 1.91859,-0.63319 7.62971,-1.25532 12.6914,-1.3825 6.77076,-0.17013 10.78882,-0.83923 15.20306,-2.53167 4.07717,-1.56321 10.16937,-2.67475 19.01012,-3.46845 7.15557,-0.64241 13.53289,-1.4911 14.17182,-1.88598 0.63893,-0.39488 4.20849,-0.76367 7.93235,-0.81953 3.72387,-0.0559 8.54063,-0.72606 10.70391,-1.48931 2.16329,-0.76325 5.62538,-1.38773 7.69354,-1.38773 2.06815,0 8.42407,-1.50258 14.12427,-3.33907 13.26771,-4.27458 38.33917,-9.18329 41.23278,-8.0729 0.88438,0.33936 3.7507,0.1222 6.36959,-0.48259 3.97175,-0.91722 27.36739,-2.15022 45.26162,-2.38539 7.00083,-0.092 15.60027,1.91863 22.42417,5.24301 3.42864,1.67032 6.67619,3.03694 7.2168,3.03694 0.5406,0 1.98101,1.35 3.20091,3 1.2199,1.65 2.8333,3 3.58533,3 1.28047,0 10.98649,4.47523 20.07279,9.25513 2.2,1.15732 7.6,3.95111 12,6.20842 4.4,2.25731 9.42859,5.16101 11.17464,6.45267 2.39939,1.77497 4.38,2.32131 8.11048,2.23727 4.02967,-0.0908 5.80053,0.48158 9.6458,3.11765 15.97373,10.95057 15.76558,10.83562 31.06908,17.15749 10.07728,4.16291 11.6224,4.52426 18.41975,4.30773 4.86954,-0.15512 7.56189,-0.66599 7.83333,-1.48636 z m -300.61591,-22.7706 c 16.76883,-2.51864 21.7142,-7.4794 7.45619,-7.4794 -6.68354,0 -24.59336,5.9428 -24.59336,8.16052 0,1.25173 5.80435,1.02104 17.13717,-0.68112 z m 109.15244,-22.9794 c -0.34959,-1.66165 -3.67567,-1.67548 -5.79687,-0.0241 -1.88634,1.46854 -1.77917,1.5373 2.00726,1.28774 2.2,-0.145 3.90532,-0.71364 3.78961,-1.26364 z"
       id="path3011"
       inkscape:connector-curvature="0" />
    <path
       style="fill:#2b2b2b"
       d="m 619.5493,494.88314 c -3.82118,-0.69403 -12.79761,-1.73894 -19.94761,-2.322 -7.15,-0.58307 -14.125,-1.45273 -15.5,-1.93259 -1.375,-0.47987 -5.2,-1.64446 -8.5,-2.58798 -9.31759,-2.66406 -26.80803,-8.46463 -28.73643,-9.53021 -0.95504,-0.52773 -2.71564,-0.95951 -3.91245,-0.95951 -1.19682,0 -4.24042,-1.31919 -6.76357,-2.93154 -4.8346,-3.08942 -22.64499,-9.46001 -24.03895,-8.5985 -0.44923,0.27764 -3.45644,-0.83382 -6.68269,-2.46991 -3.22625,-1.63609 -6.64058,-2.98042 -7.5874,-2.98738 -0.94681,-0.007 -4.32181,-1.18827 -7.5,-2.62512 -3.17818,-1.43686 -7.39384,-2.99791 -9.36814,-3.46901 -3.82292,-0.91222 -14.27367,-7.45253 -17.3629,-10.86608 -1.02159,-1.12885 -3.08281,-2.05246 -4.58049,-2.05246 -1.6763,0 -3.2713,-0.82573 -4.14933,-2.14812 -1.36038,-2.04883 -2.08837,-2.13841 -15.75134,-1.93829 -11.29041,0.16538 -14.85148,0.55477 -16.81014,1.83813 -1.88766,1.23684 -5.40263,1.6863 -14.62064,1.86953 -12.19851,0.24248 -17.16277,1.02979 -23.69044,3.75723 -2.14003,0.89416 -7.45372,1.56169 -13.48811,1.69444 -8.85785,0.19486 -11.6494,0.76327 -25.28847,5.14916 -8.43233,2.71156 -16.98233,5.192 -19,5.51209 -2.01768,0.32009 -5.56229,1.38683 -7.8769,2.37053 -2.31462,0.98371 -7.92691,2.29769 -12.47176,2.91997 -4.54486,0.62227 -8.54661,1.30646 -8.89278,1.5204 -1.28259,0.79269 -48.19899,2.5941 -64.42707,2.47375 -5.6937,-0.0422 -11.39386,-1.03806 -12.05378,-2.10583 -0.31034,-0.50215 -2.76652,-0.91299 -5.45818,-0.91299 -2.69167,0 -5.92761,-0.39329 -7.19099,-0.87399 -1.26338,-0.48069 -4.77205,-1.66203 -7.79705,-2.6252 -5.04299,-1.6057 -22.14605,-9.61089 -24.5,-11.46737 -0.55,-0.43376 -2.125,-1.13031 -3.5,-1.54788 -2.45218,-0.7447 -4.57136,-2.23762 -12.40878,-8.74174 -2.14982,-1.7841 -4.9176,-3.91882 -6.15062,-4.74382 -4.76173,-3.18604 -9.99729,-7.66152 -13.39651,-11.45168 -1.94925,-2.17343 -4.21909,-4.51183 -5.04409,-5.19645 -9.84112,-8.16662 -22.79665,-22.04362 -27.27618,-29.21622 -2.8731,-4.60039 -7.37393,-10.87233 -10.001857,-13.93763 -2.627922,-3.06531 -5.009908,-6.72635 -5.2933,-8.13565 -0.283393,-1.40931 -1.162797,-3.68737 -1.95423,-5.06237 -0.791434,-1.375 -2.083438,-3.85 -2.871119,-5.5 -0.787681,-1.65 -3.495659,-6.07272 -6.017729,-9.82826 -2.52207,-3.75554 -4.599653,-7.35554 -4.616853,-8 -0.0172,-0.64446 -1.138086,-3.42174 -2.490857,-6.17174 -1.352772,-2.75 -2.463699,-5.9225 -2.468728,-7.05 -0.005,-1.1275 -0.419679,-2.4775 -0.921446,-3 -1.451116,-1.51108 -6.087032,-13.5852 -6.094286,-15.87241 -0.0036,-1.14267 -0.900659,-3.42759 -1.993411,-5.07759 -1.092752,-1.65 -1.989787,-4.15119 -1.993411,-5.55821 -0.0036,-1.40701 -1.799906,-6.13201 -3.991738,-10.5 -2.191832,-4.36798 -3.991832,-8.69282 -4,-9.61075 -0.0082,-0.91793 -0.645707,-2.94293 -1.416753,-4.5 -2.421818,-4.89068 -4.797106,-13.20002 -4.0971,-14.33265 0.369266,-0.59749 -0.03084,-2.15809 -0.88913,-3.468 -1.44893,-2.21135 -3.770613,-14.46555 -3.6055,-19.03039 0.03979,-1.1 0.027,-6.42059 -0.02842,-11.82354 -0.05542,-5.40295 0.360735,-10.37962 0.924789,-11.05926 0.564053,-0.67964 1.477701,-5.25905 2.030328,-10.17646 1.016919,-9.04878 1.157108,-10.18936 2.573842,-20.94074 0.971876,-7.37542 5.887288,-20.64178 8.53642,-23.03921 1.076169,-0.97392 1.956673,-2.72156 1.956673,-3.88364 0,-2.2424 3.716584,-8.38621 7.644629,-12.63718 1.301056,-1.40802 4.13563,-6.58302 6.299052,-11.5 2.977713,-6.76769 5.113515,-10.03341 8.789825,-13.43997 2.670981,-2.475 7.753608,-7.80692 11.294728,-11.84871 3.54112,-4.041787 8.020912,-8.171146 9.955082,-9.176352 3.64337,-1.893487 9.42606,-6.822163 10.11986,-8.625315 0.72872,-1.893902 10.87252,-8.368603 16.28156,-10.392388 2.93877,-1.099533 6.13235,-2.871134 7.09685,-3.936891 0.96449,-1.065757 3.94541,-2.665734 6.62426,-3.555504 2.67884,-0.889769 5.16572,-2.095229 5.52638,-2.678799 0.36067,-0.58357 5.28727,-3.245713 10.94801,-5.915874 5.66074,-2.670161 10.59503,-5.34475 10.9651,-5.943531 0.37007,-0.598781 1.69369,-0.832478 2.94139,-0.519326 1.50074,0.376662 3.55676,-0.304841 6.0747,-2.013563 4.94681,-3.356996 16.7608,-7.564567 34.43857,-12.265351 4.125,-1.0969 9.525,-2.688689 12,-3.53731 10.03573,-3.441021 15.99455,-4.864937 26,-6.212943 13.93662,-1.877641 56.40477,-3.527307 61.45912,-2.387366 2.16177,0.487557 4.26703,0.678467 4.67838,0.424243 0.41134,-0.254223 8.78188,-0.464031 18.60119,-0.46624 13.58955,-0.0031 18.90413,0.366734 22.25332,1.548397 2.74496,0.96848 9.49252,1.742802 17.93867,2.058567 16.27868,0.608591 21.87992,2.09318 27.52314,7.294918 2.32027,2.138749 5.52986,4.716249 7.13242,5.727777 5.88994,3.717686 17.95035,13.006984 20.67116,15.921558 5.50815,5.900407 12.12845,23.222365 13.1856,34.5 0.71386,7.615373 2.32126,15.280753 4.08908,19.500003 3.33595,7.96192 5.4345,28.84168 5.58677,55.5863 0.13207,23.19771 0.72445,34.14281 2.99911,55.4137 0.64698,6.05 1.13813,13.475 1.09144,16.5 -0.10481,6.79222 2.57595,27.87755 3.8424,30.22203 0.51161,0.94711 2.26068,7.24711 3.88682,14 3.61585,15.0156 6.11122,21.27653 19.21522,48.21135 7.25448,14.91132 8.91306,17.90325 12.23265,22.06662 1.75413,2.2 5.42227,7.31981 8.15142,11.37737 2.72915,4.05755 6.86401,8.94059 9.18859,10.8512 2.32457,1.91061 5.52692,5.56579 7.11632,8.12263 3.95795,6.36705 19.92122,23.05147 22.72948,23.7563 1.25689,0.31546 4.50178,3.12197 7.21088,6.23669 3.94234,4.5326 5.88355,5.91932 9.7241,6.94651 4.59527,1.22905 8.84599,4.0084 15.23441,9.96107 1.62217,1.51153 6.7314,4.28025 11.35385,6.15272 4.62245,1.87246 9.47765,4.23496 10.78932,5.25 1.31167,1.01503 3.14099,1.84551 4.06516,1.84551 0.92417,0 6.15098,2.25491 11.61514,5.01091 11.70877,5.90565 18.08473,7.98909 24.44898,7.98909 4.2372,0 4.9422,0.36219 7.92173,4.06982 2.58171,3.2126 3.13077,4.63434 2.60676,6.75 -1.83736,7.41828 -1.80305,8.14872 0.46916,9.98864 2.50403,2.02765 2.9656,6.30893 0.94293,8.7461 -5.16077,6.21834 -20.66662,9.92831 -32.50711,7.77773 z m -12.32958,-20.45032 c 1.70989,-1.70989 1.85442,-2.28504 0.75,-2.98469 -0.75241,-0.47666 -2.21349,-0.87355 -3.24683,-0.88197 -1.03334,-0.008 -3.62214,-1.59031 -5.75288,-3.51531 -2.13074,-1.925 -4.44526,-3.5 -5.14336,-3.5 -0.6981,0 -2.8343,-1.26248 -4.74712,-2.80551 -1.91281,-1.54304 -6.00709,-4.02263 -9.09839,-5.51022 -3.40207,-1.63713 -7.99003,-5.16759 -11.6237,-8.94448 -3.30173,-3.43189 -8.13046,-7.81479 -10.73052,-9.73979 -2.60005,-1.925 -6.59438,-5.26161 -8.8763,-7.41468 -4.80962,-4.53807 -9.49182,-7.57624 -11.68414,-7.58158 -0.84436,-0.002 -3.54436,-2.31841 -6,-5.14745 -2.45563,-2.82904 -5.55442,-6.09154 -6.88619,-7.25 -3.65473,-3.17912 -4.96107,-4.71616 -7.89498,-9.28924 -4.1011,-6.39238 -12.0429,-16.09214 -18.51004,-22.60733 -3.20454,-3.22834 -8.56238,-10.44621 -11.90632,-16.03972 -3.34395,-5.5935 -6.64949,-10.845 -7.34567,-11.67 -0.69617,-0.825 -1.5663,-2.70438 -1.93362,-4.1764 -0.36731,-1.47203 -1.52737,-3.45427 -2.57791,-4.40499 -1.05053,-0.95072 -1.91006,-2.7347 -1.91006,-3.96441 0,-1.2297 -1.56963,-4.42245 -3.48807,-7.09501 -5.16937,-7.20139 -7.51193,-11.93032 -7.51193,-15.16436 0,-1.58667 -0.85204,-3.65594 -1.89342,-4.59838 -1.04138,-0.94244 -2.85566,-4.94968 -4.03173,-8.90499 -1.17606,-3.9553 -2.87061,-9.44146 -3.76566,-12.19146 -3.01319,-9.25794 -5.46372,-19.95 -6.36446,-27.76926 -0.49224,-4.2731 -1.35168,-8.62262 -1.90987,-9.66561 -0.55819,-1.04298 -1.14949,-9.24874 -1.31399,-18.23501 -0.16451,-8.98627 -0.64135,-16.89243 -1.05965,-17.56926 -1.14281,-1.8491 -2.20006,-53.77436 -1.63419,-80.26086 0.19948,-9.33658 -0.138,-13.7453 -1.33349,-17.42071 -0.88031,-2.7064 -1.34127,-5.34026 -1.02436,-5.85302 0.3169,-0.51277 -0.32266,-3.02345 -1.42126,-5.57929 -2.82253,-6.56647 -4.24792,-11.378867 -4.24792,-14.341818 0,-2.54358 -5.24709,-9.228696 -15.93735,-20.305165 -6.52044,-6.756011 -10.3892,-9.5 -13.39409,-9.5 -2.83794,0 -8.9511,-4.651039 -8.378,-6.374183 0.20594,-0.619199 1.68731,-1.353711 3.29194,-1.632248 2,-0.347168 3.01256,-1.170517 3.21977,-2.618123 0.25152,-1.757172 -0.4706,-2.306303 -4.3013,-3.270884 -5.16955,-1.30171 -6.22844,-0.951565 -7.5379,2.492577 -0.68203,1.793876 -1.66746,2.402861 -3.88819,2.402861 -2.9917,0 -12.07488,-5.318959 -12.07488,-7.070847 0,-0.511034 -0.7875,-0.922634 -1.75,-0.914666 -0.9625,0.008 -4.675,-0.865597 -8.25,-1.941257 -12.39101,-3.728255 -35.0136,-5.83417 -45,-4.189007 -3.72753,0.614074 -6.14454,0.554334 -7.5,-0.185374 -1.28514,-0.701333 -9.86341,-1.066804 -24,-1.022503 -24.27994,0.07609 -35.91272,1.551634 -45.5,5.771395 -3.025,1.331428 -9.77335,3.405702 -14.99633,4.609498 -17.56708,4.048869 -41.76048,13.661428 -52.38127,20.812202 -3.78269,2.546807 -9.49063,5.980559 -12.68433,7.630559 -3.19369,1.65 -6.62377,3.739749 -7.62239,4.643887 -1.73953,1.574942 -19.06669,10.093881 -26.26139,12.911473 -1.89514,0.742176 -4.82014,2.538761 -6.49999,3.992412 -1.67986,1.453651 -6.29607,4.764591 -10.25824,7.357641 -3.96216,2.59305 -8.46216,6.27847 -9.999996,8.18982 -1.537833,1.91135 -4.480359,5.41869 -6.538948,7.79409 -2.058588,2.3754 -4.399625,6.1803 -5.202305,8.45534 -0.802679,2.27504 -2.715244,6.27818 -4.250142,8.89589 -4.434225,7.56236 -9.420633,20.19702 -10.758252,27.25945 -0.677102,3.575 -1.998428,8.29364 -2.936281,10.48587 -0.937853,2.19223 -1.8679,6.24223 -2.066771,9 -0.198872,2.75777 -0.823464,6.81413 -1.387984,9.01413 -1.223128,4.76668 -3.424969,27.33694 -3.559785,36.49004 -0.05771,3.91826 0.610897,8.47532 1.687273,11.5 0.980577,2.75548 1.543429,5.90996 1.250784,7.00996 -0.504129,1.89493 1.5273,13.419 3.538055,20.071 0.510563,1.68905 0.928296,4.47959 0.928296,6.20121 0,4.58041 2.544534,13.59115 5.36677,19.00488 1.354157,2.5976 2.700009,6.42701 2.990782,8.50979 0.880928,6.31004 15.983354,30.47368 26.836344,42.93772 1.78374,2.04853 3.61838,4.74853 4.07698,6 0.4586,1.25147 1.69093,3.1754 2.73852,4.2754 5.29269,5.5575 14.2261,17.11867 16.24405,21.02223 0.85928,1.66222 4.19129,5.50282 7.40444,8.53465 3.21316,3.03184 6.56893,6.89008 7.45727,8.57388 0.88834,1.68379 4.71334,5.14263 8.5,7.68632 3.78666,2.54368 7.44599,5.52967 8.13185,6.63553 0.68585,1.10587 3.61085,3.20272 6.5,4.65968 2.88914,1.45696 6.82799,3.85069 8.75299,5.3194 6.86964,5.24132 22.38738,13.39905 27.89669,14.6654 3.08182,0.70837 8.75331,2.27809 12.60331,3.48827 8.73547,2.74582 36.8189,4.82109 39.82619,2.94301 1.02515,-0.64022 6.25061,-1.32977 11.61213,-1.53234 6.73318,-0.25439 11.57514,-1.03576 15.65496,-2.52633 5.51459,-2.01476 18.93436,-3.89875 41.90672,-5.88325 4.95,-0.42762 10.26679,-1.297 11.8151,-1.93197 1.5483,-0.63496 4.73236,-1.15448 7.07567,-1.15448 2.34331,0 7.49857,-1.13129 11.45614,-2.51398 12.91461,-4.5121 23.20188,-6.46872 49.65309,-9.44395 7.29889,-0.82097 35.34979,-2.13621 46.5,-2.18027 5.4715,-0.0216 14.2313,2.09649 18.4715,4.46638 2.4613,1.37565 5.76764,2.78507 7.34742,3.13205 1.57977,0.34697 3.85526,1.96037 5.05663,3.58532 1.20138,1.62495 2.92911,2.95445 3.83939,2.95445 0.91029,0 4.60932,1.51503 8.22007,3.36674 3.61074,1.85171 8.21649,3.89973 10.235,4.55116 2.0185,0.65142 4.21883,1.8457 4.88962,2.65395 0.67079,0.80826 4.64429,3.08289 8.83,5.05474 4.1857,1.97185 8.96037,4.59832 10.61037,5.83659 1.97441,1.48173 4.8964,2.40804 8.54723,2.70957 4.22352,0.34883 6.60979,1.23314 10,3.70578 3.94434,2.8768 12.41394,8.5195 15.3796,10.24636 1.97692,1.15113 11.9957,5.14535 20.07317,8.00263 10.4221,3.68667 21.35089,4.02159 24.61803,0.75445 z M 300.77951,452.48771 c 7.43828,-1.13473 14.7162,-2.51471 16.17316,-3.06662 2.86491,-1.08525 7.14902,-4.7075 7.14902,-6.04455 0,-1.7753 -17.2509,-0.86016 -23.9295,1.26942 -13.42396,4.28044 -18.04624,7.04213 -15.0062,8.96579 1.79525,1.13599 -0.0917,1.27184 15.61352,-1.12404 z m 92.82218,-19.50525 c 9.88906,-0.16124 14.34688,-0.79093 22.25,-3.14295 5.30031,-1.57741 6.27676,-2.53605 4.0101,-3.93692 -1.69758,-1.04917 -23.1915,-0.51842 -26.2606,0.64845 -1.36264,0.51808 -4.72206,1.19858 -7.46538,1.51224 -5.56355,0.63611 -12.03412,3.02216 -12.03412,4.43763 0,1.14904 5.80386,1.96747 8.5,1.19862 1.1,-0.31368 6.05,-0.63637 11,-0.71707 z"
       id="path3009"
       inkscape:connector-curvature="0" />
    <path
       style="fill:#1a1a1a"
       d="m 611.10169,491.64344 c -0.825,-0.46406 -6.675,-1.0707 -13,-1.34807 -6.325,-0.27738 -12.625,-0.9615 -14,-1.52028 -1.375,-0.55878 -4.3,-1.48507 -6.5,-2.05842 -6.86992,-1.79041 -12.89439,-3.81398 -26.26052,-8.82073 -3.44329,-1.2898 -7.53604,-2.34509 -9.09501,-2.34509 -1.56027,0 -3.64453,-0.89507 -4.63639,-1.99107 -2.90065,-3.20519 -9.91592,-6.8906 -14.51686,-7.62632 -2.52565,-0.40387 -5.58479,-1.84289 -7.50867,-3.53208 -1.78562,-1.56779 -4.13899,-2.85053 -5.22971,-2.85053 -1.09072,0 -3.19237,-0.95119 -4.67034,-2.11376 -1.88709,-1.48439 -4.51184,-2.22575 -8.81527,-2.48988 -8.19372,-0.50289 -9.52613,-1.02945 -11.30388,-4.46723 -0.83309,-1.61102 -2.11747,-2.92913 -2.85417,-2.92913 -0.73671,0 -2.48363,-0.9 -3.88205,-2 -1.39842,-1.1 -3.45291,-2 -4.56552,-2 -2.72146,0 -8.93484,-4.05307 -9.72144,-6.34142 -0.41367,-1.20341 -1.28841,-1.67002 -2.52469,-1.34673 -1.04043,0.27208 -2.98053,-0.36178 -4.31132,-1.40858 -1.33079,-1.0468 -3.58614,-1.90327 -5.01189,-1.90327 -3.32314,0 -3.47054,-2.71558 -0.2146,-3.95349 1.30772,-0.4972 4.34522,-2.96111 6.75,-5.47536 3.45493,-3.6122 4.84442,-4.44196 6.62233,-3.95463 2.78836,0.76431 2.9582,2.38348 0.25,2.38348 -2.23113,0 -2.67529,2.21914 -0.75,3.74723 2.79726,2.22018 8.53349,3.40493 10.50984,2.17068 1.55894,-0.97357 3.11963,-0.70332 8.60007,1.4892 3.68253,1.47325 8.77506,3.78434 11.31674,5.13576 2.54168,1.35142 5.41968,2.45713 6.39556,2.45713 0.97589,0 3.04637,1.05753 4.60106,2.35007 2.66232,2.21337 15.2195,8.64993 16.87531,8.64993 0.41945,0 2.26498,1.14589 4.10117,2.54642 2.09777,1.60005 5.23017,2.77046 8.42841,3.14924 3.73611,0.44249 6.1374,1.478 9.02836,3.89334 2.16617,1.80978 4.94086,3.60835 6.16599,3.99681 1.22512,0.38847 4.2047,2.21558 6.62129,4.06025 2.41659,1.84467 5.34517,3.35394 6.50796,3.35394 1.16278,0 4.13557,1.07411 6.6062,2.38692 10.05992,5.3455 27.36838,8.52971 33.99204,6.25347 2.2582,-0.77603 5.26942,-0.9337 8.48707,-0.44437 3.77736,0.57444 5.33323,0.41225 6.4141,-0.66862 1.8945,-1.8945 0.37012,-3.73357 -5.41674,-6.53494 -3.19202,-1.54523 -5.3009,-1.92991 -7.90341,-1.44168 -3.21468,0.60308 -3.71433,0.37903 -5.29441,-2.37411 -1.20111,-2.09281 -2.7825,-3.23472 -5.07534,-3.66486 -1.83183,-0.34365 -5.04579,-2.17439 -7.14214,-4.06832 -2.09634,-1.89392 -4.34284,-3.44349 -4.99221,-3.44349 -2.13364,0 -9.06729,-4.4636 -9.62915,-6.19885 -0.30254,-0.93436 -1.44951,-1.98431 -2.54881,-2.33322 -1.09931,-0.3489 -3.43879,-2.07052 -5.19885,-3.82581 -1.76006,-1.75529 -4.13932,-3.85534 -5.28724,-4.66678 -1.14792,-0.81144 -2.72713,-2.82534 -3.50936,-4.47534 -0.84738,-1.78741 -2.33785,-3.13047 -3.68751,-3.32278 -1.2459,-0.17753 -2.98452,-1.42049 -3.8636,-2.76214 -2.6217,-4.00122 -10.08327,-8.52073 -12.9002,-7.81373 -1.81381,0.45524 -2.60198,0.1381 -3.09488,-1.24528 -0.36373,-1.02084 -1.29777,-2.59949 -2.07565,-3.50811 -0.77789,-0.90862 -1.27199,-2.31985 -1.098,-3.13606 0.31821,-1.49284 -6.52213,-8.7119 -8.25487,-8.7119 -0.51084,0 -0.9288,-1.2949 -0.9288,-2.87756 0,-1.58265 -0.72188,-3.47666 -1.60418,-4.2089 -0.88229,-0.73224 -1.99615,-2.36234 -2.47524,-3.62244 -0.48361,-1.27199 -1.71122,-2.2911 -2.75983,-2.2911 -2.60694,0 -9.16075,-10.08583 -9.16075,-14.09772 0,-1.87663 -0.39884,-2.05004 -3.41413,-1.48437 -3.185,0.59751 -3.45878,0.4372 -4.07946,-2.38871 -0.45093,-2.05309 -1.26696,-3.0292 -2.53241,-3.0292 -2.0429,0 -8.974,-9.55175 -8.974,-12.36707 0,-0.91304 0.5625,-2.57603 1.25,-3.69554 1.11978,-1.82344 0.75517,-2.50489 -3.5,-6.54143 -3.43955,-3.26284 -4.75,-5.27034 -4.75,-7.27664 0,-1.66244 -0.99998,-3.71013 -2.5,-5.11932 -1.375,-1.29175 -2.5,-3.31675 -2.5,-4.5 0,-1.18325 -1.125,-3.20825 -2.5,-4.5 -2.13011,-2.00114 -2.50227,-3.24756 -2.51531,-8.42431 -0.008,-3.34163 -0.41679,-6.70988 -0.90748,-7.48501 -1.00181,-1.58251 -0.35116,-4.09068 1.06116,-4.09068 0.50842,0 1.21187,0.7875 1.56323,1.75 0.35136,0.9625 1.46224,2.82319 2.46862,4.13486 1.00638,1.31167 1.82978,3.64761 1.82978,5.19098 0,1.54337 0.49584,3.11257 1.10187,3.48712 0.60603,0.37454 2.85373,4.4909 4.99489,9.14747 2.14116,4.65656 4.83516,9.78958 5.98666,11.40672 1.15151,1.61714 2.5197,4.48331 3.04044,6.36927 0.52074,1.88595 4.1934,7.45376 8.16147,12.3729 3.96807,4.91915 8.4157,10.97115 9.88363,13.44889 1.46793,2.47774 3.92613,5.10951 5.46267,5.84838 1.53654,0.73888 3.79648,2.91841 5.02209,4.84341 6.37424,10.01169 19.70071,24.02108 25.94619,27.27581 1.87418,0.9767 4.55826,3.59859 5.96463,5.82643 1.60266,2.53877 3.93399,4.60806 6.24625,5.54415 6.381,2.58328 10.60409,4.86458 13.18921,7.12478 7.7865,6.8078 12.72682,10.22883 14.77151,10.22883 2.42137,0 8.87728,2.9574 13.38286,6.13058 1.4599,1.02818 3.9574,1.86942 5.55,1.86942 1.5926,0 3.32313,0.41233 3.84563,0.9163 0.5225,0.50396 5.13957,3.00741 10.26016,5.56322 7.63213,3.80938 10.60604,4.74819 16.5,5.20874 6.25623,0.48885 7.61186,0.9606 10.43984,3.63294 1.7875,1.68912 3.25,3.59084 3.25,4.22603 0,0.63519 -1.125,3.27073 -2.5,5.85675 -1.375,2.58601 -2.5,5.122 -2.5,5.63551 0,0.51352 1.575,1.59175 3.5,2.39606 2.38702,0.99736 3.5,2.11461 3.5,3.51342 0,1.12807 -0.45,2.05103 -1,2.05103 -0.55,0 -1.96119,0.96119 -3.13598,2.13598 -1.17479,1.17479 -3.76229,2.57826 -5.75,3.11882 -4.70218,1.27878 -28.16938,1.93165 -30.11402,0.83779 z M 478.13686,433.00847 c 0.92413,-1.1135 0.97687,-1.84558 0.18967,-2.63278 -1.5761,-1.5761 -4.22484,-0.23206 -4.22484,2.14378 0,2.40201 2.22385,2.67151 4.03517,0.489 z m -254.03517,29.52627 c -0.825,-0.54068 -3.075,-0.90422 -5,-0.80787 -3.79163,0.18977 -7.18979,-1.23188 -10.79235,-4.51508 -1.9152,-1.74542 -2.6122,-1.88939 -4.23643,-0.87504 -3.10969,1.94203 -4.60386,1.45869 -8.1433,-2.63424 -3.03731,-3.51228 -3.89128,-3.90574 -9.77915,-4.5057 -4.95088,-0.50448 -7.05672,-1.23746 -9.05472,-3.15166 -1.43192,-1.37187 -3.38049,-2.4943 -4.33015,-2.4943 -0.94967,0 -2.01811,-0.75949 -2.37432,-1.68774 -0.98569,-2.56868 -6.88298,-7.52049 -12.28123,-10.31226 -2.65874,-1.375 -6.44871,-3.9738 -8.42216,-5.77511 -1.97344,-1.80131 -4.69518,-3.69603 -6.0483,-4.21049 -1.5728,-0.59797 -2.76256,-2.1021 -3.29839,-4.16993 -0.61797,-2.38483 -2.37309,-4.28293 -6.68103,-7.22528 -3.21358,-2.19491 -6.03595,-4.72906 -6.27193,-5.63145 -0.23598,-0.90239 -1.77401,-2.4352 -3.41785,-3.40624 -1.64384,-0.97104 -3.69925,-3.25535 -4.56757,-5.07625 -0.86833,-1.8209 -2.64131,-3.79485 -3.93995,-4.38655 -1.73157,-0.78896 -2.36117,-1.89047 -2.36117,-4.13099 0,-2.4316 -0.71434,-3.47664 -3.5,-5.12021 -3.06152,-1.80634 -3.5,-2.56031 -3.5,-6.0183 0,-3.40618 -0.38055,-4.09011 -2.75,-4.94233 -3.590074,-1.29125 -9.509064,-9.06817 -8.635119,-11.34564 0.589977,-1.53745 -0.04115,-3.54913 -2.788959,-8.88959 -0.590359,-1.14738 -0.585512,-2.26474 0.01301,-3 1.46561,-1.80043 -1.932117,-9.97662 -4.642527,-11.17164 -1.427561,-0.62941 -2.162161,-1.71215 -1.982249,-2.92167 0.404936,-2.72231 2.81139,-3.19664 3.468544,-0.68369 0.367998,1.40723 1.351287,2.10536 2.965316,2.10536 1.42677,0 2.636352,0.716 2.956367,1.75 0.297887,0.9625 0.958764,2.53139 1.468615,3.48643 0.509855,0.95504 0.927006,3.36568 0.927006,5.35699 0,2.80743 -0.336879,3.49128 -1.5,3.04495 -2.044511,-0.78455 -1.882914,-0.0213 0.5,2.36163 1.1,1.1 3.26,2 4.799996,2 3.86366,0 5.13783,1.60828 4.48098,5.65598 -0.76136,4.69169 2.21627,10.01422 6.96902,12.45715 2.4214,1.24461 3.75,2.6289 3.75,3.90719 0,1.08883 0.44396,1.97968 0.98658,1.97968 0.54262,0 1.64466,1.575 2.44898,3.5 0.80431,1.925 2.12769,3.5 2.94083,3.5 0.81315,0 2.40129,1.2375 3.5292,2.75 1.12791,1.5125 2.67905,3.425 3.44697,4.25 0.76792,0.825 2.34544,3.38024 3.50559,5.67832 1.38931,2.75202 2.88077,4.28813 4.36917,4.5 1.62067,0.2307 2.40902,1.17017 2.78735,3.32168 0.49504,2.81517 0.77268,2.97958 4.50644,2.66859 3.61005,-0.30068 3.80531,-0.20092 2.10634,1.0762 -2.82477,2.12338 -1.31642,6.14495 1.99321,5.31428 1.82468,-0.45796 3.58526,0.27011 7.04951,2.91526 5.32342,4.06473 6.31964,4.28062 7.04008,1.52567 0.30053,-1.14921 1.36402,-2 2.5,-2 1.13599,0 2.19948,0.85079 2.5,2 0.32847,1.25605 1.36402,2 2.78394,2 2.53283,0 4.10915,1.5217 4.66153,4.5 0.2963,1.59761 1.44326,2.1312 5.70071,2.65211 3.66103,0.44794 6.16166,1.42726 7.98668,3.12782 3.66777,3.41764 6.47878,4.72007 10.18724,4.72007 3.73522,0 12.77689,2.47606 18.62967,5.10174 2.28802,1.02645 6.11302,1.91271 8.5,1.96947 14.9329,0.3551 26.74635,1.27128 26.27276,2.03755 -1.03109,1.66834 0.45717,0.89774 3.23102,-1.67298 2.43056,-2.25257 3.33185,-2.48652 7.4156,-1.92486 2.64194,0.36336 6.54211,0.12375 9.03468,-0.55506 2.41226,-0.65694 7.08592,-1.37777 10.38592,-1.60185 3.3,-0.22407 7.49116,-1.10511 9.31369,-1.95785 2.25468,-1.05494 4.57166,-1.3379 7.25,-0.8854 2.5771,0.4354 3.93631,0.28938 3.93631,-0.42286 0,-1.50957 2.52569,-1.36433 3.84131,0.22089 0.81512,0.98216 0.53371,1.79018 -1.12755,3.23765 -2.73467,2.38274 -10.67178,6.38 -12.75232,6.42229 -0.84621,0.0172 -3.27526,0.91669 -5.3979,1.99888 -2.12264,1.08218 -4.2625,1.71844 -4.75525,1.41391 -1.43341,-0.8859 -3.80829,1.66212 -3.80829,4.08594 0,2.73532 -3.57494,6.13835 -6.02362,5.73394 -0.9944,-0.16422 -3.53339,0.44422 -5.64219,1.35211 -2.88106,1.24035 -7.8116,1.74043 -19.83419,2.01165 -8.8,0.19853 -17.35,0.59514 -19,0.88137 -1.65,0.28623 -3.675,0.078 -4.5,-0.46264 z m -7.29705,-10.18637 c 1.53838,-0.66137 2.94551,-1.29732 3.12695,-1.41324 0.18145,-0.11591 -0.46719,-1.42727 -1.44142,-2.91414 -1.62906,-2.48626 -2.15944,-2.65741 -6.60373,-2.13105 -6.01249,0.71209 -6.78475,1.18554 -6.78475,4.15956 0,2.01454 0.57666,2.44094 3.75,2.77288 2.0625,0.21575 4.06633,0.46791 4.45295,0.56037 0.38662,0.0924 1.96162,-0.37302 3.5,-1.03438 z m 9.29705,-0.79752 c 0,-0.55 -0.19844,-1 -0.44098,-1 -0.24254,0 -0.7191,0.45 -1.05902,1 -0.33992,0.55 -0.14148,1 0.44098,1 0.58246,0 1.05902,-0.45 1.05902,-1 z m -26.17668,-4.64282 c -0.38654,-1.96404 -3.43474,-4.0791 -4.43589,-3.07794 -0.79146,0.79146 2.40547,4.72076 3.84088,4.72076 0.50509,0 0.77284,-0.73927 0.59501,-1.64282 z m -9.82332,-6.19051 c 0,-1.30208 -1.18877,-2.16804 -2.15579,-1.57039 -1.03422,0.63919 -0.14245,2.40372 1.21481,2.40372 0.51754,0 0.94098,-0.375 0.94098,-0.83333 z m 101.71935,18.86812 c -0.34943,-1.33623 0.0905,-2.15704 1.37442,-2.56455 2.81409,-0.89316 4.11199,0.27678 2.87375,2.59045 -1.33958,2.50302 -3.59043,2.4893 -4.24817,-0.0259 z m 27.28065,-21.83479 c 0,-3.12994 2.11307,-4.40765 4.18635,-2.53136 2.75741,2.49542 2.25455,4.33136 -1.18635,4.33136 -2.22222,0 -3,-0.46667 -3,-1.8 z m 20.39301,-2.78179 c 0.33385,-0.86998 0.60699,-1.99498 0.60699,-2.5 0,-1.27096 2.73475,-1.15641 3.54112,0.14832 0.36254,0.5866 -0.17341,1.69729 -1.19098,2.4682 -2.46946,1.87086 -3.70113,1.82233 -2.95713,-0.11652 z m 7.21423,0.28387 c -2.3196,-1.69614 -0.78538,-3.05776 5.26996,-4.6771 5.45376,-1.45847 7.12682,-0.1434 3.36032,2.64129 -3.95183,2.92172 -6.5731,3.54005 -8.63028,2.03581 z m -15.09716,-2.71839 c 0.34546,-0.55897 1.04702,-0.75742 1.55902,-0.44098 1.38704,0.85723 1.12841,1.45729 -0.62812,1.45729 -0.85746,0 -1.27636,-0.45734 -0.9309,-1.01631 z m 46.48992,-7.3767 c 0,-1.7618 3.02477,-2.98222 4.28009,-1.7269 0.5201,0.5201 0.6433,1.43485 0.27376,2.03278 -0.97403,1.57601 -4.55385,1.33555 -4.55385,-0.30588 z M 83.339194,323.38835 c -0.680625,-0.68062 -1.2375,-1.64504 -1.2375,-2.14314 0,-0.49811 -1.125,-2.24263 -2.5,-3.87673 -2.648129,-3.14712 -3.343212,-6.25316 -1.25,-5.58573 1.526174,0.48662 7.034636,10.41419 6.563209,11.82847 -0.208712,0.62614 -0.812037,0.5408 -1.575709,-0.22287 z m -9.264233,-16.8375 c -0.757144,-1.63561 -0.637017,-9 0.146808,-9 1.519443,0 1.874351,2.24589 0.948153,6 -0.474928,1.925 -0.96766,3.275 -1.094961,3 z M 465.10169,293.5054 c 0,-1.98054 -0.94836,-3.99117 -2.71213,-5.75 -1.68596,-1.68125 -2.92282,-4.21801 -3.26898,-6.70455 -0.54834,-3.93883 -0.61519,-3.99536 -4.37154,-3.69628 -3.22293,0.25661 -3.76016,0.0239 -3.46314,-1.5 0.19415,-0.99617 1.23951,-1.82038 2.33487,-1.84093 4.52122,-0.0848 5.66118,-2.4718 2.48092,-5.19482 -2.09463,-1.79347 -2.6514,-4.74735 -1.0781,-5.7197 1.76941,-1.09356 6.67264,8.01701 8.85417,16.45173 3.01797,11.66877 3.75548,17 2.35174,17 -0.6203,0 -1.12781,-1.37045 -1.12781,-3.04545 z M 65.351694,275.84252 c -1.486402,-0.54502 -1.67807,-4.90907 -0.254253,-5.78904 1.336756,-0.82616 3.636008,4.28886 2.427127,5.3995 -0.507581,0.46633 -1.485374,0.64162 -2.172874,0.38954 z m -2.087492,-8.18008 c -1.604934,-1.00529 -1.176666,-5.28561 0.586966,-5.86642 1.695785,-0.55847 2.710049,2.42119 1.628703,4.78472 -0.586446,1.28182 -1.322492,1.64116 -2.215669,1.0817 z m 393.019438,-8.61159 c -0.62649,-1.375 -1.79716,-2.5 -2.60149,-2.5 -2.2288,0 -2.73123,-1.57499 -1.42029,-4.45219 0.90688,-1.99039 0.90987,-2.87777 0.0127,-3.77494 -1.59042,-1.59042 -1.47609,-2.77287 0.26811,-2.77287 0.79254,0 1.71335,-0.4407 2.04625,-0.97933 0.87379,-1.41382 -1.29751,-5.02067 -3.02241,-5.02067 -1.97561,0 -1.8477,-1.91898 0.28518,-4.27833 2.30595,-2.5508 2.22191,-11.06036 -0.15393,-15.58657 -1.26986,-2.4192 -1.4613,-3.66987 -0.68117,-4.45 1.48416,-1.48416 1.3618,-4.92314 -0.28834,-8.1038 -0.83335,-1.60628 -1.1828,-4.33875 -0.88863,-6.94859 0.3212,-2.84965 -0.0662,-5.36676 -1.14777,-7.45837 -0.98752,-1.90964 -1.38269,-4.15277 -1.00013,-5.67701 0.48382,-1.9277 0.29771,-2.39148 -0.79188,-1.97337 -1.62609,0.62399 -5.50224,-3.1532 -4.38368,-4.27176 0.40454,-0.40455 1.17414,0.0482 1.71022,1.00613 1.53831,2.74881 3.69917,2.03914 4.68725,-1.53939 1.34523,-4.87203 0.32942,-9.58021 -2.46151,-11.4089 -2.2551,-1.4776 -2.30958,-1.72343 -0.86919,-3.92175 1.19657,-1.8262 1.39227,-3.89951 0.88414,-9.36681 -0.35892,-3.86181 -0.92546,-7.02168 -1.25898,-7.02193 -0.33352,-2.5e-4 -0.64675,-8.54758 -0.69606,-18.99409 -0.0732,-15.50093 -0.37028,-19.31653 -1.61569,-20.74955 -0.83932,-0.96575 -1.79922,-2.91043 -2.13311,-4.3215 -0.33389,-1.41108 -1.53159,-3.63156 -2.66154,-4.934413 -1.12995,-1.302848 -2.28608,-3.523332 -2.56918,-4.934408 -0.28309,-1.411075 -0.91616,-4.06863 -1.40681,-5.905676 -0.49066,-1.837046 -0.68352,-3.883644 -0.42858,-4.547997 0.25493,-0.664353 -0.67475,-2.277256 -2.06596,-3.58423 -1.39121,-1.306975 -2.52947,-3.236965 -2.52947,-4.288867 0,-1.197484 -1.09771,-2.326889 -2.93599,-3.020761 -3.07145,-1.159344 -3.10688,-1.386139 -1.47908,-9.468061 0.32679,-1.622493 -0.0168,-2.25 -1.23199,-2.25 -0.92684,0 -2.39791,-0.654112 -3.26905,-1.453582 -0.87114,-0.79947 -2.64139,-2.41947 -3.93389,-3.6 -1.70909,-1.561031 -2.65,-1.846418 -3.45,-1.046418 -1.74566,1.745656 -3.7,1.280339 -3.7,-0.880948 0,-1.279022 -0.88585,-2.203281 -2.5,-2.608408 -1.54354,-0.387405 -2.5,-1.337689 -2.5,-2.483868 0,-2.03016 -2.78203,-3.926776 -5.75994,-3.926776 -1.04029,0 -2.91778,-1.092494 -4.1722,-2.427765 -1.25442,-1.335271 -2.8963,-2.191564 -3.64861,-1.902873 -0.75232,0.288691 -2.08656,-0.193815 -2.96498,-1.072235 -1.90585,-1.905854 -9.58726,-2.155534 -12.39375,-0.402853 -1.5051,0.939957 -2.51372,0.901915 -4.73643,-0.178641 -1.55325,-0.755104 -3.94909,-1.494005 -5.32409,-1.642002 -8.07774,-0.869444 -13.78793,-0.950387 -18.17065,-0.257571 -2.83292,0.447824 -6.03202,0.377185 -7.45718,-0.16466 -4.40533,-1.674905 -16.17553,-2.359485 -17.77299,-1.033715 -1.05817,0.878206 -2.85977,0.943783 -6.70883,0.244194 -2.89419,-0.526036 -5.81835,-0.743004 -6.49812,-0.482151 -0.67977,0.260853 -2.14827,-0.01398 -3.26334,-0.610747 -1.55311,-0.831199 -2.8468,-0.694275 -5.53011,0.585304 -3.03279,1.446239 -3.73122,1.480855 -5.20595,0.258023 -1.25924,-1.044145 -3.94375,-1.319672 -10.29804,-1.056946 -4.72713,0.195449 -9.04322,0.628068 -9.59131,0.961375 -0.54809,0.333307 -4.37309,0.669644 -8.5,0.747417 -10.97447,0.206815 -21.60239,1.78247 -23.68425,3.511334 -2.70754,2.248463 -6.13838,3.574472 -12.81923,4.954589 -3.3,0.681708 -8.025,1.897442 -10.5,2.701631 -6.41505,2.084408 -14.85663,4.268292 -16.49866,4.268292 -0.77059,0 -3.4349,1.372611 -5.92068,3.050246 -2.48579,1.677635 -7.79055,4.224745 -11.78837,5.660244 -7.02412,2.522156 -15.29702,7.494172 -19.16099,11.515766 -1.10603,1.151155 -2.65951,1.738123 -3.80639,1.438209 -1.06573,-0.278695 -3.14981,0.109787 -4.6313,0.863294 -1.48149,0.753506 -3.5278,1.621806 -4.54736,1.929556 -1.09527,0.330598 -1.62921,1.144695 -1.30497,1.989656 0.38424,1.001324 -1.81638,2.647855 -7.3396,5.491571 -4.33862,2.233802 -8.52819,4.061458 -9.31018,4.061458 -0.78198,0 -2.6207,0.943068 -4.08604,2.095707 -1.46534,1.152638 -3.33159,1.83963 -4.1472,1.526648 -0.90059,-0.345588 -4.68064,1.991674 -9.62575,5.951746 -4.51635,3.616722 -8.756,6.285502 -9.51967,5.992452 -0.82614,-0.31702 -1.74006,0.42692 -2.28488,1.85992 -0.57958,1.5244 -2.03032,2.63477 -4.01076,3.06975 -2.449106,0.53791 -3.233359,1.33459 -3.722795,3.78177 -0.913068,4.56535 -12.203401,15.2963 -13.642968,12.96703 -1.457544,-2.35835 7.712509,-17.24502 10.622778,-17.24502 0.495015,0 3.783997,-2.9125 7.308845,-6.47222 3.52485,-3.559724 7.81743,-7.200644 9.53907,-8.090935 3.38258,-1.7492 7.48759,-5.945575 8.38124,-8.567767 0.3057,-0.897005 1.92437,-1.904629 3.59705,-2.239165 2.45381,-0.490762 2.92169,-0.984881 2.42235,-2.558178 -0.72664,-2.289429 1.90284,-4.071738 6.00712,-4.071738 1.46375,0 3.85584,-0.848524 5.31574,-1.885608 1.4599,-1.037084 4.22937,-2.552418 6.15437,-3.367408 1.925,-0.814991 4.76068,-2.666467 6.30152,-4.114392 1.54084,-1.447926 3.62324,-2.632592 4.62756,-2.632592 1.00432,0 2.38623,-0.675 3.07092,-1.5 0.68469,-0.825 1.90631,-1.5 2.71472,-1.5 0.8084,0 2.56655,-0.862684 3.90699,-1.917076 1.34044,-1.054391 4.33642,-2.23027 6.65773,-2.613064 2.32131,-0.382794 4.79435,-1.159582 5.49565,-1.726195 0.70131,-0.566614 3.14199,-1.135543 5.42374,-1.264287 2.28175,-0.128745 4.63296,-0.858557 5.2249,-1.621806 1.50055,-1.934785 12.95773,-7.85616 15.21625,-7.864161 1.02301,-0.0036 3.21002,-0.900659 4.86002,-1.993411 1.65,-1.092752 3.87341,-1.989787 4.9409,-1.993411 1.0675,-0.0036 5.5675,-1.105772 10,-2.449219 4.43251,-1.343446 11.11428,-3.21502 14.84838,-4.159054 3.73411,-0.944033 7.02317,-2.09485 7.30902,-2.55737 0.28585,-0.46252 2.4665,-0.840946 4.84588,-0.840946 2.37938,0 6.6328,-0.744965 9.45204,-1.655478 3.74398,-1.209171 5.7295,-1.384336 7.36484,-0.649737 1.23141,0.553158 4.03894,0.806225 6.23894,0.562371 2.2,-0.243855 8.05,-0.558347 13,-0.698872 4.95,-0.140525 11.87115,-0.758068 15.38034,-1.372318 4.1903,-0.733471 7.00283,-0.783673 8.19386,-0.146256 1.0098,0.540428 11.81404,0.993387 24.37888,1.022065 15.68751,0.0358 24.01034,0.459754 27.30614,1.390924 2.60743,0.736682 10.54897,1.605421 17.64786,1.930531 9.46594,0.433515 13.35276,0.994444 14.57874,2.10394 0.91942,0.832056 2.87149,1.51283 4.33794,1.51283 4.60767,0 28.40761,19.700679 30.20192,25 0.27934,0.825 2.27297,2.803239 4.4303,4.396087 2.15732,1.592847 4.47388,4.292847 5.14791,6 0.67402,1.707152 1.88445,3.878505 2.68983,4.825229 1.68879,1.985163 2.95457,7.158365 4.35008,17.778684 1.02188,7.776883 2.23354,13.351703 4.02088,18.500003 1.62847,4.69069 2.84581,12.28103 3.36798,21 0.26352,4.4 0.97125,13.4 1.57274,20 0.60149,6.6 1.30176,19.65 1.55615,29 0.25439,9.35 0.50501,17.675 0.55693,18.5 0.0519,0.825 -0.0546,3.075 -0.23666,5 -0.18207,1.925 0.47087,6.2 1.45099,9.5 1.4762,4.97025 1.5931,6.82343 0.68118,10.79784 -0.88831,3.8715 -0.81251,5.48794 0.39258,8.37212 1.64433,3.93545 1.91036,8.12456 0.64283,10.12254 -0.45098,0.71088 -0.23563,4.31088 0.47856,8 1.54371,7.97396 1.66024,10.2075 0.53256,10.2075 -0.46172,0 -1.35207,-1.125 -1.97857,-2.5 z M 61.157525,248.11812 c -1.015487,-1.22359 -1.079346,-1.94375 -0.246232,-2.77687 0.833114,-0.83311 1.287475,-0.701 1.751948,0.50939 1.022545,2.66471 0.04531,4.13635 -1.505716,2.26748 z m -10.513126,-2.49817 c -0.68307,-1.10523 0.894408,-2.29865 1.817815,-1.37525 0.950785,0.95079 0.773587,2.30615 -0.301503,2.30615 -0.517541,0 -1.199881,-0.41891 -1.516312,-0.9309 z m 8.028145,-21.25572 c -1.27057,-4.02084 -1.522364,-8.72531 -0.50079,-9.35668 0.650985,-0.40233 0.890525,-1.90377 0.564109,-3.53585 -0.657376,-3.28689 1.932001,-10.30701 3.454641,-9.36596 0.60882,0.37627 0.738677,1.92243 0.318336,3.79031 -0.665035,2.95523 -1.264519,9.63973 -1.423466,15.87224 -0.07503,2.94219 -1.738033,4.7314 -2.41283,2.59594 z m 0.17915,-42.51136 c -3.534507,-1.87097 -4.75,-3.09562 -4.75,-4.78576 0,-2.84218 1.647117,-4.24306 5.5,-4.67777 2.641412,-0.29803 2.984772,-0.70493 2.872601,-3.40415 -0.09184,-2.20999 0.450895,-3.32645 1.94449,-4 1.13954,-0.51389 2.411182,-2.23065 2.825871,-3.81504 0.414689,-1.58438 1.755609,-3.94688 2.979823,-5.25 l 2.225843,-2.3693 -2.174314,-2.31445 c -3.882689,-4.13293 -2.169505,-6.63096 4.575686,-6.6719 3.191207,-0.0194 2.892579,2.46925 -1.25,10.41686 -2.109021,4.0462 -3.51026,8.17627 -3.525817,10.39215 -0.02666,3.7973 -3.952917,16.5882 -5.56358,18.12494 -0.522891,0.4989 -2.933032,-0.20175 -5.660603,-1.64558 z m 19.247569,-43.80656 c -2.684832,-5.01666 2.041875,-12.88459 5.601828,-9.32463 1.515899,1.51589 1.464515,1.98214 -0.694996,6.30614 -2.897662,5.802 -3.288474,6.04242 -4.906832,3.01849 z"
       id="path3007"
       inkscape:connector-curvature="0" />
  </g>
  <text
     xml:space="preserve"
     style="font-size:40px;font-style:normal;font-weight:normal;line-height:125%;letter-spacing:0px;word-spacing:0px;fill:#000000;fill-opacity:1;stroke:none;font-family:Sans"
     x="263.77118"
     y="192.02542"
     id="text3021"
     sodipodi:linespacing="125%"><tspan
       sodipodi:role="line"
       id="tspan3023"></tspan></text>
</svg>
